<?xml version="1.0" standalone="no"?>
<!DOCTYPE svg PUBLIC "-//W3C//DTD SVG 20010904//EN"
 "http://www.w3.org/TR/2001/REC-SVG-20010904/DTD/svg10.dtd">
<svg version="1.0" xmlns="http://www.w3.org/2000/svg"
 width="512.000000pt" height="512.000000pt" viewBox="0 0 512.000000 512.000000"
 preserveAspectRatio="xMidYMid meet">

<g transform="translate(0.000000,512.000000) scale(0.100000,-0.100000)"
fill="#000000" stroke="none">
<path d="M1760 4245 l0 -875 -880 0 -880 0 0 -800 0 -800 880 0 880 0 0 -885
0 -885 800 0 800 0 0 885 0 885 880 0 880 0 0 800 0 800 -880 0 -880 0 0 875
0 875 -800 0 -800 0 0 -875z m1200 -400 l0 -875 880 0 880 0 0 -400 0 -400
-880 0 -880 0 0 -885 0 -885 -400 0 -400 0 0 885 0 885 -880 0 -880 0 0 400 0
400 880 0 880 0 0 875 0 875 400 0 400 0 0 -875z"/>
</g>
</svg>
