<?xml version="1.0" encoding="UTF-8"?>
<svg version="1.1" xmlns="http://www.w3.org/2000/svg" width="1254" height="1254">
<path d="M0 0 C413.82 0 827.64 0 1254 0 C1254 413.82 1254 827.64 1254 1254 C840.18 1254 426.36 1254 0 1254 C0 840.18 0 426.36 0 0 Z " fill="#000000" transform="translate(0,0)"/>
<path d="M0 0 C2.0625 1.75 2.0625 1.75 3 4 C3.1875 6.75 3.1875 6.75 3 9 C2.34 9 1.68 9 1 9 C1.05414062 9.74121094 1.10828125 10.48242188 1.1640625 11.24609375 C0.97407201 14.43521983 0.27052001 15.54000029 -1.625 18.0625 C-7.85711708 26.98442233 -11.57496729 35.94266887 -14.04296875 46.45703125 C-15 50 -15 50 -16.42578125 53.32421875 C-19.92569598 61.49647623 -21.68942699 69.89304135 -23.1875 78.625 C-23.36474609 79.62917969 -23.54199219 80.63335937 -23.72460938 81.66796875 C-24.15506578 84.1110997 -24.58010265 86.55503622 -25 89 C-25.66 89 -26.32 89 -27 89 C-27.04898438 89.58265625 -27.09796875 90.1653125 -27.1484375 90.765625 C-27.67638075 96.55479582 -28.518826 102.21837733 -29.5546875 107.9375 C-29.99318016 110.95309867 -30.06834472 113.83180204 -30.125 116.875 C-30.57806944 123.31026409 -33.37111507 127.81391195 -36.796875 133.08984375 C-42.46441318 142.45663078 -45.20509893 153.54375347 -48.125 164 C-48.62580078 165.75183594 -48.62580078 165.75183594 -49.13671875 167.5390625 C-51.89833593 177.30760642 -54.59741711 187.09231926 -55.8125 197.1875 C-57.61577843 210.77321632 -61.2668497 224.14325107 -64.609375 237.41796875 C-65.59232477 241.32800274 -66.51120464 245.23553308 -67.3125 249.1875 C-70.94182474 266.28105536 -75.19987755 283.15399368 -80.1953125 299.8984375 C-82.46270216 307.5052442 -84.57703643 315.15412545 -86.69116211 322.8046875 C-87.77570775 326.7119925 -88.85217911 330.57737765 -90.19140625 334.40625 C-91.01666142 337.05344533 -91.20860398 339.1160688 -91.125 341.875 C-91.09792969 343.04675781 -91.09792969 343.04675781 -91.0703125 344.2421875 C-91.04710937 344.82226562 -91.02390625 345.40234375 -91 346 C-84.98334915 344.12045287 -79.13344451 342.15377411 -73.4375 339.4375 C-69.9315547 337.774168 -66.72436108 336.63221688 -62.9375 335.8125 C-55.75573257 334.02993793 -49.6754106 330.08854802 -43.31640625 326.43359375 C-39.12284854 324.03271585 -34.83560571 322.00514554 -30.3984375 320.09375 C-27.11780608 318.59769659 -24.05208588 316.7886503 -20.97265625 314.91796875 C-19 314 -19 314 -15 314 C-15 313.34 -15 312.68 -15 312 C-4.62642369 307.59225513 -4.62642369 307.59225513 1 307 C1 306.34 1 305.68 1 305 C1.88300781 304.69707031 2.76601563 304.39414062 3.67578125 304.08203125 C9.30180978 302.11805781 14.85069305 300.16039999 20.25 297.625 C30.38381507 292.88087324 40.90231062 288.76694972 51.671875 285.7265625 C57.96851149 283.7615048 63.99853575 280.9408221 69.96875 278.15625 C77.29230986 274.77753955 83.7452387 271.86109777 92 272 C92 271.34 92 270.68 92 270 C92.85464844 269.57847656 93.70929687 269.15695312 94.58984375 268.72265625 C95.69457031 268.17480469 96.79929687 267.62695312 97.9375 267.0625 C99.59072266 266.24458984 99.59072266 266.24458984 101.27734375 265.41015625 C103.84794414 264.25295022 103.84794414 264.25295022 105 263 C110.24050633 262.5443038 110.24050633 262.5443038 112.875 264.125 C114.65952249 267.09920415 114.64846 268.56316202 114 272 C111.92245494 274.91554643 109.47212278 277.41881297 107 280 C106.195625 281.010625 105.39125 282.02125 104.5625 283.0625 C102.02784304 285.96808237 99.3778703 288.32122432 96.44140625 290.80078125 C94.48871349 292.55976689 92.66328823 294.34296758 90.83984375 296.23046875 C90.27910156 296.80853271 89.71835938 297.38659668 89.140625 297.98217773 C88.02897823 299.13605306 86.9256628 300.29803007 85.83203125 301.46899414 C80.25099721 307.24161848 74.59992236 309.20147589 66.625 310.0625 C55.92597451 311.33871393 55.92597451 311.33871393 45.828125 314.8671875 C41.18149786 316.96961765 36.45755543 318.63253179 31.625 320.25 C22.20476217 323.47066225 13.07820695 327.2257375 3.94140625 331.16894531 C0.86283849 332.48678292 -2.24835589 333.7167381 -5.36328125 334.9453125 C-7.55461282 335.82184513 -9.73736482 336.7144782 -11.91796875 337.6171875 C-12.64032715 337.91616943 -13.36268555 338.21515137 -14.10693359 338.52319336 C-15.51277299 339.10597712 -16.9181024 339.68999369 -18.32275391 340.27563477 C-29.41837781 344.87292426 -40.68880577 349.04511598 -51.9375 353.25 C-53.11634766 353.69601562 -54.29519531 354.14203125 -55.50976562 354.6015625 C-56.64994141 355.02695312 -57.79011719 355.45234375 -58.96484375 355.890625 C-59.9818335 356.27250977 -60.99882324 356.65439453 -62.04663086 357.04785156 C-65.02714862 358.00875255 -67.90266939 358.56522624 -71 359 C-71 359.66 -71 360.32 -71 361 C-69.08380859 361.16435547 -69.08380859 361.16435547 -67.12890625 361.33203125 C-61.88740247 361.91782834 -56.99395293 363.22627394 -51.9375 364.6875 C-43.82223233 366.97061383 -35.68633834 369.11146905 -27.5 371.125 C-20.11402219 372.94741545 -12.79223839 374.86875373 -5.49609375 377.0234375 C-2.88704227 377.75222283 -0.29501632 378.41929684 2.33984375 379.0390625 C15.80590973 382.21520432 28.79891739 386.45141811 41.88134766 390.93945312 C44.65765364 391.88357973 47.43990438 392.80220408 50.23046875 393.703125 C74.56731087 401.56731087 74.56731087 401.56731087 79 406 C79.78679495 413.02607892 77.73876544 417.90547106 74.75 424.1875 C74.35425781 425.06341797 73.95851563 425.93933594 73.55078125 426.84179688 C71.48866512 431.30070045 69.51506478 435.48493522 66 439 C62.25 439.8125 62.25 439.8125 59 440 C56.26964659 435.89327991 53.96584456 432.03442557 52.3125 427.375 C49.82774097 421.62652972 45.44850111 419.6354163 40 417 C39.05125 416.52046875 38.1025 416.0409375 37.125 415.546875 C30.56057064 412.36513628 23.83456459 409.72459794 17 407.1875 C16.18668213 406.88529541 15.37336426 406.58309082 14.53540039 406.27172852 C8.88637196 404.18650511 8.88637196 404.18650511 3 403 C2.67 403.33 2.34 403.66 2 404 C-3.96438069 404.51364204 -8.03263695 403.11819276 -13.375 400.8125 C-15.13600854 400.08032075 -16.8977882 399.34999458 -18.66015625 398.62109375 C-19.64773926 398.20972168 -20.63532227 397.79834961 -21.65283203 397.37451172 C-27.6243447 394.92231505 -33.63903109 392.57927757 -39.64898682 390.22323608 C-43.10684417 388.86753398 -46.56335443 387.50841727 -50.01953125 386.1484375 C-50.67974777 385.88885757 -51.33996429 385.62927765 -52.02018738 385.36183167 C-55.40388048 384.02961575 -58.78364946 382.68834093 -62.15795898 381.33251953 C-62.83207321 381.06170563 -63.50618744 380.79089172 -64.20072937 380.51187134 C-66.05331953 379.76645265 -67.90510567 379.01903661 -69.75683594 378.27148438 C-73.79602931 376.68791624 -77.86366716 375.30621037 -82 374 C-81.68474365 375.02270996 -81.3694873 376.04541992 -81.04467773 377.09912109 C-78.10562717 386.77392525 -75.65189157 396.46477158 -73.54760742 406.35238647 C-72.70717262 410.28962471 -71.84013793 414.22099008 -70.97265625 418.15234375 C-70.80255035 418.92357071 -70.63244446 419.69479767 -70.45718384 420.48939514 C-67.05724674 435.82805446 -62.91359312 450.85400337 -57.95654297 465.76342773 C-56.27881519 470.83450555 -54.73885282 475.87089804 -53.5078125 481.0703125 C-51.67999954 490.52988338 -51.67999954 490.52988338 -46.546875 498.26953125 C-44.0402902 499.48251307 -41.68179222 500.27903874 -39 501 C-36.375 502.875 -36.375 502.875 -35 505 C-34.07396807 512.40825545 -36.01026513 520.4902479 -38.015625 527.6015625 C-39.68992191 534.15156777 -39.70636538 540.9887164 -40.03515625 547.71289062 C-40.51214536 555.13322123 -41.56099417 561.86959984 -46.44873047 567.73999023 C-48 569 -48 569 -50.9375 569.0625 C-55.17778807 567.59137965 -56.02917173 566.01204327 -58 562 C-58.33258107 560.51665076 -58.61916736 559.02259334 -58.87109375 557.5234375 C-60.00910227 551.52238295 -61.88132433 545.84837077 -63.8125 540.0625 C-66.26874229 532.56666919 -68.5953611 525.0926353 -70.5 517.4375 C-72.6041084 509.01008368 -75.29778624 500.82447386 -78.14648438 492.62084961 C-79.83688846 487.70738051 -81.31769285 482.84633344 -82.50390625 477.78515625 C-83.71786181 472.76109116 -85.38616067 468.42372483 -87.8125 463.875 C-88.33154907 462.85780884 -88.33154907 462.85780884 -88.86108398 461.82006836 C-90.88612902 457.9056027 -93.11860636 454.23405049 -95.5625 450.5625 C-98.09756882 446.4679173 -98.47773511 443.77864609 -97.56640625 439.07421875 C-97.06699925 437.24535588 -96.50678902 435.43332982 -95.9375 433.625 C-93.57729902 424.49888953 -95.38726431 415.38221669 -97.25 406.3125 C-97.47526367 405.17925293 -97.70052734 404.04600586 -97.93261719 402.87841797 C-99.68939828 394.17751981 -101.7046379 385.57385254 -104 377 C-104.3363766 375.66743117 -104.67130903 374.33448534 -105 373 C-108.27955013 374.77699473 -108.97293734 375.9203155 -110.1953125 379.51953125 C-110.5228785 380.94657965 -110.83183275 382.37798978 -111.125 383.8125 C-111.29040283 384.56426514 -111.45580566 385.31603027 -111.6262207 386.09057617 C-112.9047472 392.07322234 -113.84401063 398.0742156 -114.60546875 404.14453125 C-115 407 -115 407 -115.49560547 408.92773438 C-115.99308986 410.97161025 -116.26110113 412.91967858 -116.46484375 415.01171875 C-116.54114014 415.76517578 -116.61743652 416.51863281 -116.69604492 417.29492188 C-116.81556519 418.47924805 -116.81556519 418.47924805 -116.9375 419.6875 C-117.27945235 422.79313038 -117.63654481 425.89681958 -118 429 C-118.16242188 430.40185547 -118.16242188 430.40185547 -118.328125 431.83203125 C-119.52080158 439.02698233 -124.01304083 444.25634451 -128.46484375 449.8359375 C-133.42242671 456.25517865 -134.70953474 463.49225331 -136.3125 471.3125 C-137.56127345 477.37233748 -139.18855477 483.25427358 -140.9375 489.1875 C-143.55646544 498.15192701 -145.68652349 507.11653374 -147.46728516 516.28173828 C-148.08010438 519.40874525 -148.7182726 522.53021565 -149.35546875 525.65234375 C-149.82124844 527.97637512 -150.28609834 530.30059303 -150.75 532.625 C-150.97308838 533.71578857 -151.19617676 534.80657715 -151.42602539 535.93041992 C-152.89710313 543.44431247 -153.98363733 550.47696544 -152 558 C-151.61572179 562.99561667 -151.54528845 567.49969549 -154 572 C-156 574 -156 574 -158.75 574.4375 C-164.51489317 573.66145669 -167.53980272 569.59390043 -171.125 565.375 C-175.47212442 560.28265425 -180.43428829 555.90258336 -185.40625 551.44091797 C-186.99242213 550.00685119 -188.56109964 548.55595404 -190.125 547.09765625 C-196.56434225 541.10061019 -203.1048385 535.35185935 -210.37890625 530.37109375 C-218.98587949 524.25971736 -221.93321777 516.75593468 -224.12890625 506.640625 C-226.30428163 500.04621353 -230.97010295 495.95939109 -236 491.5 C-241.13204416 486.83632201 -245.91139592 482.05887857 -250.375 476.75 C-251.10529419 475.88556274 -251.10529419 475.88556274 -251.8503418 475.00366211 C-254.10257378 472.31838229 -256.3143075 469.60597383 -258.49609375 466.86328125 C-259.26050781 465.93902344 -260.02492188 465.01476562 -260.8125 464.0625 C-261.45832031 463.24910156 -262.10414063 462.43570312 -262.76953125 461.59765625 C-264.97155997 459.71058308 -264.97155997 459.71058308 -268.16015625 459.87890625 C-273.2358913 460.96137682 -277.37166398 464.03722737 -281.625 466.875 C-283.28369376 467.95597534 -284.94254333 469.03671164 -286.6015625 470.1171875 C-287.36629883 470.62088867 -288.13103516 471.12458984 -288.91894531 471.64355469 C-291.24340039 473.15864999 -293.60372273 474.60135653 -296 476 C-295.43247977 481.27218065 -293.63965368 485.26498246 -291.3125 489.9375 C-288.12657292 496.51480643 -285.28972898 503.11523033 -282.625 509.921875 C-278.19863754 521.14506305 -273.37149759 532.23193526 -268.1875 543.125 C-265.80872675 548.14503182 -263.77272184 553.15615689 -261.95703125 558.40234375 C-260.95721428 561.11613268 -259.79282569 563.69567724 -258.5625 566.3125 C-256.09835649 571.60249615 -254.17155002 577.01308948 -252.25 582.51953125 C-250.36587032 587.76565482 -248.19108822 592.87622448 -246 598 C-245.05899789 600.20684331 -244.12142389 602.41515192 -243.1875 604.625 C-242.76855469 605.60726562 -242.34960938 606.58953125 -241.91796875 607.6015625 C-241 610 -241 610 -241 612 C-227.12620209 606.40642332 -213.45904712 600.43508218 -199.84460449 594.24246216 C-184.03669375 587.05341407 -168.18216195 580.30538724 -151.94458008 574.14379883 C-147.81794564 572.54084034 -143.74129617 570.82510914 -139.66064453 569.10913086 C-136.56802613 567.819925 -133.44945629 566.61437118 -130.3125 565.4375 C-125.90757299 563.75818697 -121.58774237 561.97702618 -117.296875 560.02734375 C-113.60158542 558.37451865 -109.85967906 556.83752117 -106.11328125 555.3046875 C-104.03139989 554.43223032 -101.96568026 553.52020149 -99.91796875 552.5703125 C-93.75480047 549.76959161 -87.84056178 547.44237682 -81 549 C-79.16015625 550.09375 -79.16015625 550.09375 -78 552 C-77.9926688 558.12887971 -80.26860096 561.32031884 -84.0625 565.75 C-85.07181648 566.98053877 -86.07961683 568.21232259 -87.0859375 569.4453125 C-87.58319336 570.04762695 -88.08044922 570.64994141 -88.59277344 571.27050781 C-94.9582811 579.09376532 -100.45725169 587.58818532 -106 596 C-107.51880676 598.29304751 -109.03912696 600.58499242 -110.5625 602.875 C-110.96968262 603.48770752 -111.37686523 604.10041504 -111.79638672 604.73168945 C-114.37677348 608.6022696 -116.98815288 612.4501161 -119.62109375 616.28515625 C-126.63934968 626.50834743 -133.50224247 636.77591008 -139.98583984 647.34667969 C-145.08040012 655.65201484 -150.49972493 663.70919532 -156.02172852 671.73388672 C-159.48416518 676.76826068 -162.88918156 681.83489972 -166.25 686.9375 C-171.08969892 694.26364076 -176.24776363 701.33686438 -181.75390625 708.1796875 C-183.2294802 709.96756708 -183.2294802 709.96756708 -183 712.4375 C-181.69705293 715.77630188 -179.57519359 717.55686762 -177 720 C-177 720.66 -177 721.32 -177 722 C-176.05447266 722.34611328 -176.05447266 722.34611328 -175.08984375 722.69921875 C-156.15127127 730.67209439 -137.02136683 741.68315972 -120.64453125 754.0625 C-103.22594584 766.8241224 -83.39516803 776.40407086 -64.08618164 785.90380859 C-56.79068336 789.52626492 -49.73309914 793.49116697 -42.69384766 797.58569336 C-36.93473422 800.92736767 -31.1066478 804.07692786 -25.1875 807.125 C-19.21269861 810.20783497 -13.46929967 813.49195721 -7.8125 817.125 C5.389042 825.54594417 19.2303027 831.45804657 33.84765625 837.01953125 C35.56573642 837.67804029 37.28324403 838.3380464 39 839 C39.69786621 839.26756104 40.39573242 839.53512207 41.11474609 839.81079102 C44.54512639 841.19009542 47.02154183 842.56217014 49.5 845.3125 C52.25956265 848.2514961 55.11713477 850.88193062 58.2265625 853.4453125 C60 855 60 855 62.23828125 857.3203125 C65.47623729 860.46209163 68.93211374 863.08340622 72.5625 865.75 C73.26487793 866.27150635 73.96725586 866.7930127 74.69091797 867.33032227 C76.1155069 868.38800105 77.54127649 869.44409161 78.96826172 870.49853516 C98.0828991 884.62434865 98.0828991 884.62434865 101 889 C101.4375 891.9375 101.4375 891.9375 101 895 C98.22216589 898.29867801 96.45861892 898.93233491 92.1875 899.5625 C88.98697382 899.39126166 87.0658411 898.64246148 84.41796875 896.8671875 C69.80309656 887.35190098 54.39125443 879.04264312 39.01879883 870.83251953 C31.92081234 867.04156774 24.90617059 863.1524281 17.94335938 859.11816406 C13.66486794 856.65641899 9.36110529 854.23888549 5.0625 851.8125 C3.06118652 850.68231185 1.05988456 849.5521033 -0.94140625 848.421875 C-1.94703613 847.85404297 -2.95266602 847.28621094 -3.98876953 846.70117188 C-7.84110224 844.52482565 -11.69148669 842.34504713 -15.54174805 840.16503906 C-18.40645795 838.54470681 -21.2734667 836.92849511 -24.140625 835.3125 C-28.09890295 833.0801691 -32.04475992 830.82758693 -35.984375 828.5625 C-49.86717975 820.62391337 -64.03817517 813.49789834 -78.47421265 806.64311218 C-85.23183921 803.42717244 -91.93331351 800.1005854 -98.625 796.75 C-99.79039307 796.16653809 -100.95578613 795.58307617 -102.15649414 794.98193359 C-109.6626235 791.20829613 -117.11880948 787.34959375 -124.53881836 783.40966797 C-131.9599248 779.47213833 -139.47106909 775.72603387 -147 772 C-149.93882065 770.54431027 -152.87602425 769.08541304 -155.8125 767.625 C-156.48885498 767.29097168 -157.16520996 766.95694336 -157.86206055 766.61279297 C-160.70140905 765.20056869 -163.35683081 763.7621128 -166 762 C-165.55011719 762.70640625 -165.10023438 763.4128125 -164.63671875 764.140625 C-158.3319363 774.19795332 -152.66317265 784.57158907 -147 795 C-145.48787734 797.77705725 -143.9747056 800.55354024 -142.46118164 803.32983398 C-141.44024595 805.20272178 -140.41990673 807.07593482 -139.40014648 808.94946289 C-136.78228888 813.75427411 -134.14289244 818.54531315 -131.46630859 823.31762695 C-127.83998062 829.78378561 -124.30314112 836.29082295 -120.84375 842.84765625 C-120.47291794 843.54971191 -120.10208588 844.25176758 -119.72001648 844.97509766 C-117.85731276 848.50327675 -116.00020143 852.03423019 -114.15161133 855.56982422 C-110.54589159 862.43232139 -106.78351232 869.04222689 -102.53442383 875.53588867 C-100.67082801 878.52861302 -99.18143829 881.61621704 -97.69580078 884.80834961 C-94.27265005 892.66121887 -94.27265005 892.66121887 -87.625 897.4375 C-86.80515625 897.64246094 -85.9853125 897.84742188 -85.140625 898.05859375 C-80.5634936 899.43059458 -76.56455536 901.72941422 -72.375 904 C-70.77917188 904.85514908 -69.18283026 905.70934068 -67.5859375 906.5625 C-66.82071777 906.97169678 -66.05549805 907.38089355 -65.26708984 907.80249023 C-60.78433916 910.17034422 -56.28993 912.45058537 -51.625 914.4375 C-48.62651192 915.72995176 -45.68628539 917.07441217 -42.75 918.5 C-41.91984375 918.9021875 -41.0896875 919.304375 -40.234375 919.71875 C-38.0562232 920.96776012 -36.54844647 922.02787437 -35 924 C-35.07234683 927.40030089 -35.67808163 929.46813487 -37.4375 932.375 C-41.68385049 935.06780763 -45.11168877 934.88718149 -50 934 C-59.02956688 931.23932785 -67.61409907 927.29753653 -76 923 C-75.443125 924.0415625 -74.88625 925.083125 -74.3125 926.15625 C-69.05017278 936.02906837 -63.96202924 945.97343034 -59 956 C-51.28068375 972.63846391 -51.28068375 972.63846391 -41.125 987.75 C-38.70614673 990.74680936 -38.02959895 991.82240628 -37.375 995.75 C-38.05194823 999.27013079 -38.62165805 1001.30454579 -41 1004 C-43.8125 1005.25 -43.8125 1005.25 -47 1005 C-48.41503906 1003.71679687 -48.41503906 1003.71679687 -49.828125 1001.96875 C-50.60893433 1001.0101709 -50.60893433 1001.0101709 -51.40551758 1000.03222656 C-51.93169678 999.3615918 -52.45787598 998.69095703 -53 998 C-53.49330811 997.37319336 -53.98661621 996.74638672 -54.49487305 996.10058594 C-55.99501221 994.16418308 -57.47078406 992.21182806 -58.9375 990.25 C-59.46472656 989.54536621 -59.99195313 988.84073242 -60.53515625 988.11474609 C-63.93252342 983.53436715 -67.10957615 978.87809558 -70.10546875 974.0234375 C-72.59740457 970.04661621 -75.20282059 966.15024297 -77.8125 962.25 C-78.33054199 961.47575684 -78.84858398 960.70151367 -79.38232422 959.90380859 C-80.42317985 958.34852572 -81.46419433 956.79334915 -82.50537109 955.23828125 C-83.8912551 953.16285091 -85.26974292 951.08279127 -86.64453125 949 C-90.63654293 942.95984509 -94.69115219 936.98964099 -98.9375 931.125 C-102.81348122 925.760642 -106.51117571 920.29435342 -110.125 914.75 C-110.85384399 913.64035889 -110.85384399 913.64035889 -111.59741211 912.50830078 C-115 907.24140781 -115 907.24140781 -115 905 C-115.99 904.9175 -116.98 904.835 -118 904.75 C-121.64540119 904.22715361 -124.34326389 902.93934522 -127.56152344 901.20849609 C-149.68961284 890.24193196 -175.18900386 883.26605162 -199 877 C-202.5824664 876.04510643 -206.16397215 875.08672388 -209.74487305 874.12597656 C-212.02511216 873.51545632 -214.30647442 872.90911045 -216.58911133 872.30761719 C-218.1305481 871.89817871 -218.1305481 871.89817871 -219.703125 871.48046875 C-221.05905762 871.12311646 -221.05905762 871.12311646 -222.44238281 870.75854492 C-225.04025685 869.98806052 -227.49419772 869.02739707 -230 868 C-234.61275401 866.54426394 -239.26485772 865.22304736 -243.9140625 863.88916016 C-246.23063616 863.22167904 -248.54551283 862.54931671 -250.859375 861.87255859 C-254.44518905 860.82427011 -258.03410258 859.78715537 -261.62484741 858.75588989 C-263.08092097 858.33597765 -264.53603043 857.91270749 -265.99014282 857.48605347 C-268.0598553 856.87971741 -270.13285421 856.2861672 -272.20703125 855.6953125 C-274.02424683 855.1696167 -274.02424683 855.1696167 -275.87817383 854.63330078 C-278.82591123 854.03531605 -280.29214872 853.76986518 -283 855 C-284.53870472 857.04462125 -285.83222397 858.99620085 -287.125 861.1875 C-287.91343848 862.47073904 -288.70521247 863.7519336 -289.5 865.03125 C-289.90863281 865.68996094 -290.31726563 866.34867188 -290.73828125 867.02734375 C-293.4510972 871.2687433 -296.4715077 875.29527398 -299.4453125 879.35546875 C-302.15202422 883.13238933 -304.5975797 887.06637604 -307.07666016 890.99487305 C-309.764882 895.19509172 -312.56305235 899.3178362 -315.35546875 903.44921875 C-327.47258389 921.38507905 -338.58339791 939.75078173 -348.46679688 959.01904297 C-349.95913756 961.92055248 -351.46220414 964.81624016 -352.96798706 967.71078491 C-361.26977968 983.67259154 -369.46723265 999.6571567 -377 1016 C-377.46132324 1016.99918457 -377.92264648 1017.99836914 -378.39794922 1019.02783203 C-381.18772929 1025.07805775 -383.96516843 1031.13380503 -386.72338867 1037.19848633 C-387.60471833 1039.13255744 -388.49058374 1041.06456584 -389.38012695 1042.99487305 C-389.82445068 1043.96207275 -390.26877441 1044.92927246 -390.7265625 1045.92578125 C-391.12568848 1046.79114502 -391.52481445 1047.65650879 -391.93603516 1048.5480957 C-393.24974949 1051.57554707 -394.27323308 1054.64610321 -395.26586914 1057.79077148 C-396.01618459 1060.04870448 -396.89142965 1062.21503448 -397.80859375 1064.41015625 C-400.86070124 1071.96626356 -403.21609024 1079.76473599 -405.64453125 1087.5390625 C-406.01964844 1088.69921875 -406.39476562 1089.859375 -406.78125 1091.0546875 C-407.11189453 1092.10124512 -407.44253906 1093.14780273 -407.78320312 1094.22607422 C-409.11036735 1097.2516039 -410.45463669 1098.91513841 -413 1101 C-415.80259479 1101.47849179 -417.23526321 1101.49884088 -419.63183594 1099.93554688 C-421.70088279 1097.00845846 -421.38926568 1094.04495683 -421.328125 1090.59375 C-421.32625183 1089.87264038 -421.32437866 1089.15153076 -421.32244873 1088.40856934 C-421.3157326 1086.88545094 -421.30182666 1085.36234967 -421.28125 1083.83935547 C-421.25011523 1081.50862584 -421.24027979 1079.17857318 -421.234375 1076.84765625 C-421.22520362 1075.36717926 -421.21482742 1073.88670915 -421.203125 1072.40625 C-421.19887512 1071.7093103 -421.19462524 1071.01237061 -421.19024658 1070.29431152 C-421.14548314 1067.26222183 -420.96658358 1064.89975075 -420 1062 C-419.8151412 1059.818232 -419.67946339 1057.63217566 -419.5703125 1055.4453125 C-419.49861063 1054.10544285 -419.42640606 1052.76560003 -419.35375977 1051.42578125 C-419.31678986 1050.72404785 -419.27981995 1050.02231445 -419.24172974 1049.29931641 C-418.55944858 1036.59051432 -417.39065011 1024.0943735 -415.39550781 1011.51953125 C-412.72096413 994.48169739 -411.43201135 977.50196639 -410.64624023 960.2890625 C-410.60950699 959.50577576 -410.57277374 958.72248901 -410.53492737 957.91546631 C-410.46656019 956.43765687 -410.40192468 954.95966836 -410.34165955 953.48150635 C-410.11032122 948.4309068 -410.11032122 948.4309068 -409.49992371 946.04673767 C-408.97747177 943.90776717 -408.82599009 941.98105923 -408.75170898 939.7824707 C-408.71989029 938.96046677 -408.68807159 938.13846283 -408.6552887 937.29154968 C-408.6074247 935.96580681 -408.6074247 935.96580681 -408.55859375 934.61328125 C-408.12854511 924.36754051 -407.30340399 914.18922723 -406.32901001 903.98254395 C-406.0545722 901.10435662 -405.78657048 898.22563014 -405.52026367 895.34667969 C-405.17062404 891.56805341 -404.81961513 887.78956129 -404.46679688 884.01123047 C-403.07555307 869.09311186 -401.90867527 854.25042272 -401.39599609 839.27441406 C-401.12071053 832.04422659 -400.35665172 825.11306927 -399 818 C-399.64001953 817.92015869 -400.28003906 817.84031738 -400.93945312 817.75805664 C-411.07593263 816.29418877 -420.71096283 813.35890531 -430.5 810.4375 C-432.33880945 809.89392901 -434.17767728 809.35055545 -436.01660156 808.80737305 C-449.60695346 804.7779994 -463.10704248 800.50395052 -476.58300781 796.10742188 C-482.28374228 794.25985603 -487.99623671 792.45069194 -493.7154541 790.66122437 C-495.55727888 790.08373347 -497.39732894 789.50059171 -499.23730469 788.91723633 C-513.24333351 784.54559111 -527.44344642 782.20069921 -542.1171875 781.79296875 C-543.17341309 781.76275635 -544.22963867 781.73254395 -545.31787109 781.70141602 C-547.3907636 781.65163733 -549.46415148 781.61872317 -551.53759766 781.60522461 C-557.87401927 781.4621986 -563.68366484 780.73362698 -569 777 C-570.3125 773.5625 -570.3125 773.5625 -570 770 C-567.02538767 765.31815402 -563.38854972 763.20063421 -558.625 760.6875 C-557.16498913 759.89391953 -555.70535931 759.09963764 -554.24609375 758.3046875 C-553.52147949 757.9137793 -552.79686523 757.52287109 -552.05029297 757.12011719 C-549.22705968 755.57772682 -546.46099418 753.94232129 -543.6875 752.3125 C-528.23152103 743.45769689 -512.20164347 735.50029805 -496.23828125 727.60546875 C-494.20881716 726.59930501 -492.18447212 725.5826747 -490.16796875 724.55078125 C-486.26862572 722.55618643 -482.41047665 720.73681687 -478.3125 719.1875 C-474.12144458 717.56411279 -470.23827124 715.5465232 -466.3125 713.375 C-460.10874501 709.96760734 -453.76148295 707.08184087 -447.25 704.3125 C-437.03106594 699.96590329 -427.02505447 695.24611746 -417.04785156 690.37817383 C-410.88599924 687.37323463 -404.73478909 684.51621288 -398.3828125 681.9375 C-397.63773438 681.628125 -396.89265625 681.31875 -396.125 681 C-395.36445312 680.690625 -394.60390625 680.38125 -393.8203125 680.0625 C-391.65590552 679.0675735 -391.65590552 679.0675735 -391 676 C-390.7826459 673.56517839 -390.61309151 671.14917123 -390.48461914 668.70947266 C-390.44310919 667.96750515 -390.40159924 667.22553764 -390.35883141 666.46108627 C-390.22379585 663.9873673 -390.09719738 661.51333118 -389.97265625 659.0390625 C-389.90651469 657.74954618 -389.90651469 657.74954618 -389.83903694 656.43397903 C-388.82633792 636.34373207 -388.59874997 616.25817971 -388.45739746 596.14611816 C-388.3978657 587.85513387 -388.32339389 579.56427247 -388.24609375 571.2734375 C-388.23820202 570.39450584 -388.23031029 569.51557419 -388.22217941 568.61000824 C-388.07827751 553.06097838 -387.66257865 537.5361052 -387 522 C-388.37459565 522.82665591 -389.7491881 523.65331715 -391.1237793 524.47998047 C-392.3508107 525.21785797 -392.3508107 525.21785797 -393.60263062 525.97064209 C-395.37185954 527.03478326 -397.14072679 528.09952579 -398.90942383 529.16455078 C-403.17344546 531.7266414 -407.44487941 534.26994046 -411.76171875 536.7421875 C-418.81575472 540.78770197 -425.55271198 544.78579135 -431.74609375 550.109375 C-434 552 -434 552 -436.47265625 553.640625 C-450.00063839 562.92412433 -457.55751339 582.39637193 -460.60058594 598.09912109 C-461.70982809 604.5160776 -462.65989851 610.94984413 -463.50097656 617.40722656 C-464.02436555 620.12659594 -464.89310862 622.46751478 -466 625 C-472.4295082 626.33442623 -472.4295082 626.33442623 -474.8125 624.9375 C-477.70505703 620.21806485 -478.25564149 615.56932022 -478.30297852 610.12426758 C-478.31141785 609.4649675 -478.31985718 608.80566742 -478.32855225 608.12638855 C-478.35416431 605.96576143 -478.36642984 603.80527047 -478.37890625 601.64453125 C-478.39509531 600.13570596 -478.41227677 598.62689101 -478.43040466 597.11808777 C-478.47595078 593.1589944 -478.51083203 589.19988691 -478.54260254 585.24066162 C-478.59461445 578.89345318 -478.6596578 572.54639672 -478.73081779 566.19937706 C-478.75362698 563.98415358 -478.76990946 561.76894945 -478.78553772 559.55366516 C-478.79894381 558.19829086 -478.81255856 556.84291859 -478.82641602 555.48754883 C-478.83592789 554.3042952 -478.84543976 553.12104156 -478.85523987 551.90193176 C-478.87312315 548.93301449 -478.87312315 548.93301449 -480 546 C-480.2100859 543.39307474 -480.37450349 540.80246446 -480.5 538.19140625 C-480.54060547 537.42827621 -480.58121094 536.66514618 -480.62304688 535.87889099 C-480.7526549 533.4402817 -480.87693493 531.0014477 -481 528.5625 C-481.16218565 525.35521546 -481.32957969 522.14826251 -481.5 518.94140625 C-481.53544922 518.20588028 -481.57089844 517.47035431 -481.60742188 516.71253967 C-481.7868535 513.33892508 -482.17886677 510.26405683 -483 507 C-483.10199392 504.85057898 -483.15470066 502.6986113 -483.17578125 500.546875 C-483.19962891 499.28746094 -483.22347656 498.02804687 -483.24804688 496.73046875 C-483.29076002 494.09260862 -483.32214842 491.454539 -483.34179688 488.81640625 C-483.57427277 478.20901793 -485.38684515 472.29757399 -492.6875 464.5625 C-493.47511719 463.71816406 -494.26273438 462.87382812 -495.07421875 462.00390625 C-496.04274495 460.99608893 -497.01163298 459.98836702 -498 459 C-498.4241924 455.75997807 -498.67921179 453.1638968 -496.98388672 450.25878906 C-495.53871187 448.46824279 -494.02188132 446.79355964 -492.4375 445.125 C-491.3344486 443.90499034 -490.23288277 442.68363589 -489.1328125 441.4609375 C-488.5955957 440.87280273 -488.05837891 440.28466797 -487.50488281 439.67871094 C-481.07332192 432.50424425 -477.83085708 428.25159889 -477.90625 418.578125 C-477.90983521 417.70005188 -477.91342041 416.82197876 -477.91711426 415.91729736 C-477.98753535 403.85990235 -478.25115612 391.80473256 -478.5 379.75 C-478.54835907 377.33594114 -478.59653724 374.92187865 -478.64453125 372.5078125 C-478.76094194 366.67183163 -478.8795604 360.83589905 -479 355 C-482.87795702 364.02695504 -482.87795702 364.02695504 -486.0625 373.3125 C-486.54783203 374.92898438 -486.54783203 374.92898438 -487.04296875 376.578125 C-487.70733295 378.95356598 -488.33225882 381.34025078 -488.92578125 383.734375 C-494.25393115 405.22238694 -494.25393115 405.22238694 -503.0625 410.5625 C-504.69950642 411.3926407 -506.34541076 412.2054825 -508 413 C-517.09729804 417.91856927 -521.3433113 427.15804047 -526 436 C-531.5025594 446.03829166 -537.56329351 455.54183067 -544 465 C-559.82019243 488.29952504 -574.11529463 512.11464034 -585.8125 537.75 C-586.12733337 538.43743286 -586.44216675 539.12486572 -586.76654053 539.83312988 C-592.01196399 551.32820769 -596.85321122 562.99117031 -600.625 575.0625 C-602.17861212 579.84214199 -604.55717503 586.36721483 -609 589 C-613.60167853 588.83266624 -616.58660308 588.14032517 -620 585 C-620.11730469 586.23363281 -620.23460937 587.46726562 -620.35546875 588.73828125 C-621.01193022 594.62114172 -622.141064 600.38842957 -623.3125 606.1875 C-623.53397705 607.28940674 -623.7554541 608.39131348 -623.98364258 609.52661133 C-625.61559931 617.48262 -627.50202484 625.26609438 -630 633 C-630.48919922 634.60294922 -630.48919922 634.60294922 -630.98828125 636.23828125 C-632 639 -632 639 -634 641 C-636.375 641.5 -636.375 641.5 -639 641 C-646.16464175 632.78173447 -646.7294266 621.71518772 -647.6875 611.3125 C-647.81705078 610.02021484 -647.94660156 608.72792969 -648.08007812 607.39648438 C-648.61580356 601.90600734 -649.0734697 596.52064907 -649 591 C-649.66 591 -650.32 591 -651 591 C-651.14695312 590.08863281 -651.29390625 589.17726563 -651.4453125 588.23828125 C-652.94694661 579.56504972 -654.96716442 571.20505643 -657.45776367 562.76464844 C-659.58259309 555.5444665 -661.52415005 548.28578039 -663.42849731 541.00454712 C-666.00598688 531.17040218 -668.68254343 521.38166986 -671.75 511.6875 C-672.0193335 510.82970947 -672.28866699 509.97191895 -672.56616211 509.08813477 C-674.14240399 504.21677598 -675.99342103 499.58318716 -678.17822266 494.95166016 C-679.57846542 491.62618759 -679.60563383 489.57323962 -679 486 C-677.6311068 482.87408229 -676.12371975 479.87261886 -674.5078125 476.8671875 C-671.60763825 471.35234838 -670.67218641 467.11226633 -670.75 460.875 C-670.75604248 460.09237793 -670.76208496 459.30975586 -670.76831055 458.50341797 C-670.96643337 446.42152806 -672.05499291 434.45621964 -675.28515625 422.7890625 C-676.03472336 419.86452197 -676.51008884 416.98809575 -676.9375 414 C-679.24160104 398.26790026 -682.04104582 382.90854185 -689.1875 368.5625 C-696.34572318 352.62968067 -693.91015357 330.685084 -694.13127136 313.63258362 C-694.19165049 308.99100801 -694.26086775 304.34956929 -694.3288269 299.70809937 C-694.37425928 296.2439784 -694.40336451 292.77996926 -694.43188477 289.31567383 C-694.54120577 274.76015628 -694.54120577 274.76015628 -697.29858398 260.53198242 C-698.07553716 257.72732479 -698.40065106 255.01789674 -698.6875 252.125 C-700.31742441 240.70159816 -705.10233181 229.82942662 -709.08789062 219.06054688 C-713.8706787 206.06862716 -716.39244483 196.15457123 -712.55859375 182.57421875 C-711.01333257 172.68670841 -714.38016937 163.16940722 -717.07324219 153.74365234 C-717.7420095 151.40296675 -718.39946634 149.05935317 -719.0546875 146.71484375 C-724.3917178 127.48879779 -724.3917178 127.48879779 -731.1875 108.75 C-731.67605469 107.54859375 -732.16460938 106.3471875 -732.66796875 105.109375 C-733.87239258 102.12512039 -733.87239258 102.12512039 -735.1875 99.953125 C-737.01033126 95.57131909 -735.69436231 90.32890724 -735.25488281 85.71630859 C-735.06439944 83.68631049 -734.88603454 81.65516865 -734.71386719 79.62353516 C-734.39206463 75.85107267 -734.04263253 72.08196099 -733.6875 68.3125 C-733.58219971 67.07048828 -733.47689941 65.82847656 -733.3684082 64.54882812 C-733.25070068 63.37384766 -733.13299316 62.19886719 -733.01171875 60.98828125 C-732.91334717 59.93165283 -732.81497559 58.87502441 -732.71362305 57.78637695 C-731.85838624 54.44706198 -730.66190796 53.1367054 -728 51 C-725.09215119 50.29117697 -723.057461 50.66028211 -720 51 C-717.16248121 53.12126 -716.43903355 55.17442546 -715.6484375 58.5625 C-715.43703125 59.44164062 -715.225625 60.32078125 -715.0078125 61.2265625 C-714.79898438 62.14179687 -714.59015625 63.05703125 -714.375 64 C-713.94608355 65.81268262 -713.51642746 67.62519043 -713.0859375 69.4375 C-712.8082251 70.64212891 -712.8082251 70.64212891 -712.52490234 71.87109375 C-711.98939353 74.16503133 -711.98939353 74.16503133 -711 77 C-709.7934375 77.0928125 -709.7934375 77.0928125 -708.5625 77.1875 C-704.56493894 78.09922445 -701.73164632 79.69299798 -698.21875 81.7421875 C-695.25037175 83.42496531 -692.1432427 84.67652939 -689 86 C-687.41319254 86.80569398 -685.83014258 87.61881195 -684.25 88.4375 C-679.79453195 90.70264635 -675.28046976 92.4263129 -670.54296875 94.0078125 C-667.81049133 95.0739404 -665.49014058 96.4584844 -663 98 C-660.67473625 99.02848204 -658.34665157 100.02362319 -656 101 C-649.7211397 103.68639226 -643.59659941 106.65132653 -637.47167969 109.66992188 C-626.18934028 115.21112148 -614.99545593 120.20287726 -603 124 C-601.63811112 124.45996921 -600.27744023 124.92355938 -598.91796875 125.390625 C-592.66655245 127.53303667 -586.45697281 129.57727718 -580 131 C-579.33983887 131.16113281 -578.67967773 131.32226562 -577.99951172 131.48828125 C-569.56223287 133.40095013 -560.99052899 133.60391347 -552.37426758 133.87817383 C-543.72599129 134.16936505 -537.25620959 135.058199 -530 140 C-528.77927017 140.65889958 -527.54773997 141.29831051 -526.3046875 141.9140625 C-524.01197727 143.05780633 -521.72031439 144.20365197 -519.4296875 145.3515625 C-510.63963086 149.85520307 -510.63963086 149.85520307 -501 150 C-492.63631188 146.34955049 -486.84179128 138.73984442 -481 132 C-480.34902344 131.24976563 -479.69804687 130.49953125 -479.02734375 129.7265625 C-478.46144531 129.07429687 -477.89554687 128.42203125 -477.3125 127.75 C-476.21050175 126.49808791 -475.10628956 125.24812156 -474 124 C-473.03126953 122.87851563 -473.03126953 122.87851563 -472.04296875 121.734375 C-466.95773705 116.17270668 -466.95773705 116.17270668 -462.1875 115.3125 C-459 116 -459 116 -457.0625 117.125 C-455.51471985 119.85637674 -455.77315882 121.89227587 -456 125 C-460.21930435 135.12633043 -468.01668588 144.15346974 -474.48144531 152.92822266 C-476.6830718 155.93192079 -478.84260803 158.96441316 -481 162 C-480.0925 162.268125 -479.185 162.53625 -478.25 162.8125 C-473.05128205 164.71203156 -473.05128205 164.71203156 -471 167 C-470.5 170.5 -470.5 170.5 -471 174 C-473.78868315 176.64932863 -476.45056787 177.59630038 -480.140625 178.5078125 C-495.3993976 182.18456946 -495.3993976 182.18456946 -506 193 C-507.17080152 194.48956427 -508.34252936 195.97849977 -509.53027344 197.45458984 C-515.31424223 204.7076779 -520.48838245 212.40249585 -525.69042969 220.07617188 C-527.66854758 222.9821318 -529.67900662 225.86494765 -531.6875 228.75 C-534.45715904 232.74517189 -537.18725258 236.76179749 -539.875 240.8125 C-544.83235597 248.26812824 -549.85299004 255.67390175 -555 263 C-555.49580566 263.70833984 -555.99161133 264.41667969 -556.50244141 265.14648438 C-571.48023354 286.37667317 -571.48023354 286.37667317 -583 288.375 C-584.99794956 288.60215706 -586.99809524 288.81084365 -589 289 C-590.87937446 289.26200395 -592.75519634 289.55169101 -594.625 289.875 C-595.42164063 289.99617188 -596.21828125 290.11734375 -597.0390625 290.2421875 C-599.13270024 290.82256358 -599.13270024 290.82256358 -600.0546875 292.73046875 C-600.36664062 293.47941406 -600.67859375 294.22835938 -601 295 C-605.33354278 301.9570356 -610.08838912 308.5326344 -615.13330078 314.98413086 C-618.76281176 319.64040224 -622.20553544 324.41471209 -625.60107422 329.24365234 C-632.01994186 338.34662791 -632.01994186 338.34662791 -636 341 C-634.23740845 340.98259766 -634.23740845 340.98259766 -632.43920898 340.96484375 C-628.05717 340.93218111 -623.67665034 340.9522379 -619.29467773 340.98779297 C-617.40243229 340.99587741 -615.51007003 340.98988171 -613.61791992 340.96923828 C-597.92650901 340.81236545 -597.92650901 340.81236545 -593.23095703 343.70703125 C-590.85320973 346.36527505 -589.44387665 348.91323839 -588.10205078 352.19848633 C-587.15936595 354.14358387 -587.15936595 354.14358387 -585.21020508 354.71362305 C-584.48728271 354.81199463 -583.76436035 354.91036621 -583.01953125 355.01171875 C-582.19565918 355.12918457 -581.37178711 355.24665039 -580.52294922 355.36767578 C-579.18127686 355.52598877 -579.18127686 355.52598877 -577.8125 355.6875 C-576.89227051 355.80851074 -575.97204102 355.92952148 -575.02392578 356.05419922 C-566.83055638 357.05890339 -558.6262023 357.47655461 -550.37817383 357.7097168 C-549.45673584 357.73590088 -548.53529785 357.76208496 -547.5859375 357.7890625 C-546.7717334 357.80662598 -545.9575293 357.82418945 -545.11865234 357.84228516 C-543 358 -543 358 -540 359 C-538.5735686 359.11322825 -537.1427751 359.17595476 -535.7121582 359.20532227 C-534.85149246 359.22526749 -533.99082672 359.24521271 -533.1040802 359.26576233 C-532.17899155 359.28247482 -531.25390289 359.29918732 -530.30078125 359.31640625 C-529.35059616 359.33718735 -528.40041107 359.35796844 -527.4214325 359.37937927 C-524.38519544 359.44478052 -521.34887169 359.50371604 -518.3125 359.5625 C-516.25454831 359.60569417 -514.19660541 359.64930876 -512.13867188 359.69335938 C-507.09253684 359.80045231 -502.04631457 359.90174646 -497 360 C-496.690625 359.22422607 -496.38125 358.44845215 -496.0625 357.64916992 C-495.0750887 355.18722139 -494.05732147 352.7451654 -493 350.3125 C-492.67 349.54550781 -492.34 348.77851563 -492 347.98828125 C-491 346 -491 346 -489 344 C-485.5 343.75 -485.5 343.75 -482 344 C-481.34 344.66 -480.68 345.32 -480 346 C-479.38703849 296.10531867 -479.38703849 296.10531867 -487 247 C-487.21060059 246.14809082 -487.42120117 245.29618164 -487.63818359 244.41845703 C-489.74011466 236.17368593 -492.45349505 228.32810744 -496.08203125 220.61328125 C-497.18564375 217.47150779 -497.41693002 215.30938203 -497 212 C-495.41796875 209.53515625 -495.41796875 209.53515625 -493.1875 207.0625 C-484.93714446 197.49988318 -477.50181878 187.48832836 -471.4375 176.390625 C-470.10574026 174.17585064 -469.06337933 172.550153 -467 171 C-460.55555556 171.44444444 -460.55555556 171.44444444 -459 173 C-458.88796935 174.44938403 -458.84327766 175.9040565 -458.82641602 177.35766602 C-458.81292618 178.28696426 -458.79943634 179.21626251 -458.78553772 180.17372131 C-458.76988014 181.69841286 -458.76988014 181.69841286 -458.75390625 183.25390625 C-458.72090642 185.41081041 -458.68769603 187.56771136 -458.65429688 189.72460938 C-458.60732894 193.12065865 -458.56303732 196.51670129 -458.52319336 199.9128418 C-458.3246243 216.04211934 -457.30895752 231.43494374 -454.375 247.3125 C-451.48367573 264.03010101 -451.48367573 264.03010101 -454.50439453 269.9465332 C-456.67929397 274.94491455 -456.39231778 279.94501978 -456.328125 285.3125 C-456.32625183 286.39901855 -456.32437866 287.48553711 -456.32244873 288.60498047 C-456.31574295 290.9012357 -456.30185792 293.1974798 -456.28125 295.49365234 C-456.25035005 298.96072353 -456.24029592 302.42733648 -456.234375 305.89453125 C-457.04184536 325.83795756 -457.04184536 325.83795756 -453 345 C-452.63696289 347.08618164 -452.63696289 347.08618164 -452.47265625 349.16015625 C-452.40425537 349.94422852 -452.33585449 350.72830078 -452.26538086 351.53613281 C-452.19843018 352.36983398 -452.13147949 353.20353516 -452.0625 354.0625 C-451.26735837 362.95295632 -450.07076982 371.73147653 -448.68359375 380.546875 C-445.54370218 400.62742552 -445.54370218 400.62742552 -449.8692503 410.30073071 C-453.22343962 418.30768417 -454.44238785 425.98230847 -454.34057617 434.61206055 C-454.34123329 436.10676628 -454.34123329 436.10676628 -454.34190369 437.63166809 C-454.33983495 440.88355997 -454.31659509 444.13491837 -454.29296875 447.38671875 C-454.28736598 449.65785948 -454.2830991 451.92900387 -454.28010559 454.20014954 C-454.26871051 460.14641521 -454.23928961 466.09245727 -454.20599365 472.03863525 C-454.17517724 478.11882504 -454.16157561 484.19905133 -454.14648438 490.27929688 C-454.11441452 502.18629558 -454.06328328 514.09312911 -454 526 C-453.60965576 525.50048828 -453.21931152 525.00097656 -452.81713867 524.48632812 C-452.2935376 523.84115234 -451.76993652 523.19597656 -451.23046875 522.53125 C-450.71637451 521.88736328 -450.20228027 521.24347656 -449.67260742 520.58007812 C-448 519 -448 519 -444.3125 518.5 C-441 519 -441 519 -438 520 C-430.64596913 520.64509043 -424.14087933 519.07115217 -418.125 514.609375 C-416.98923352 513.61032116 -415.86947244 512.59280596 -414.765625 511.55859375 C-412.84625915 509.86428628 -410.85159756 508.55330283 -408.6875 507.1875 C-403.30177251 503.67666741 -398.55614734 499.52717343 -394 495 C-393.49761527 494.50967159 -392.99523054 494.01934319 -392.47762203 493.51415634 C-388.39957267 489.21787233 -387.11413741 485.88397143 -387.14477539 479.92675781 C-387.11588148 478.66190992 -387.11588148 478.66190992 -387.08640385 477.37150955 C-387.0260885 474.24740857 -387.01395173 471.1246475 -387 468 C-386.97542604 466.00827878 -386.95075276 464.01655794 -386.92388469 462.02486634 C-386.7944035 452.30208135 -386.74203601 442.57922803 -386.69667697 432.85575008 C-386.67453108 428.31277093 -386.64728487 423.76982215 -386.62062073 419.22686768 C-386.57107458 410.65688642 -386.52599756 402.08688795 -386.48259836 393.5168736 C-386.43289655 383.74632164 -386.37810262 373.97580021 -386.32291877 364.20527792 C-386.20968472 344.13688049 -386.10272245 324.06845381 -386 304 C-385.34 304 -384.68 304 -384 304 C-384.06783691 303.22978516 -384.13567383 302.45957031 -384.20556641 301.66601562 C-384.90322101 293.2740478 -385.27583853 284.91971034 -385.375 276.5 C-385.41238281 275.26507813 -385.44976563 274.03015625 -385.48828125 272.7578125 C-385.58569838 262.77796919 -385.58569838 262.77796919 -382.66796875 259.6953125 C-379.38514828 257.60930359 -377.81232821 257.18886634 -374 258 C-370.59337763 260.72529789 -369.74003274 263.65233131 -368.81640625 267.7421875 C-366.57854325 276.99769318 -363.79016674 286.09475739 -361.06689453 295.21679688 C-360.12968638 298.35928641 -359.19937655 301.5037626 -358.26953125 304.6484375 C-355.12892747 315.22042037 -351.829547 325.65522563 -348 336 C-347.18312193 338.36770789 -346.40305463 340.74403583 -345.625 343.125 C-339.47529798 361.68756919 -332.70139128 380.01316416 -325.84558105 398.32452393 C-324.65198976 401.51393818 -323.46090098 404.70428665 -322.26953125 407.89453125 C-316.52696865 423.2682427 -310.76622111 438.63514851 -305 454 C-295.39416821 451.37791902 -285.48778786 445.78859745 -279 438 C-277.29727732 433.73052652 -276.75221494 430.15913826 -276.76953125 425.578125 C-276.77146484 424.38832031 -276.77339844 423.19851563 -276.77539062 421.97265625 C-276.78763672 420.74417969 -276.79988281 419.51570313 -276.8125 418.25 C-276.81314453 417.00605469 -276.81378906 415.76210938 -276.81445312 414.48046875 C-276.53265133 408.5612595 -276.53265133 408.5612595 -278 403 C-278.30875682 400.02079722 -278.56832936 397.05195208 -278.796875 394.06640625 C-278.95235508 392.1998055 -279.10863361 390.33327112 -279.265625 388.46679688 C-279.50792875 385.54340216 -279.74561407 382.61999197 -279.96875 379.69506836 C-281.07366572 365.3619931 -282.28983838 349.98583833 -289 337 C-288.88814928 332.7496726 -287.06790437 330.94053148 -284.34765625 327.85546875 C-279.29606888 320.9003847 -278.79212297 314.23081922 -280 306 C-280.26398889 303.98566102 -280.52784024 301.97130343 -280.78988647 299.95671082 C-281.19744354 296.85432392 -281.62172952 293.75431599 -282.046875 290.65429688 C-282.26460032 289.0589405 -282.47979432 287.4632365 -282.69238281 285.8671875 C-283.99382869 276.10029953 -285.60303786 266.57063519 -288 257 C-288.76892825 253.67515308 -289.46477114 250.37080306 -290 247 C-290.12117188 246.29875 -290.24234375 245.5975 -290.3671875 244.875 C-290.97093586 238.30621785 -287.97646618 233.44927085 -284.82421875 227.91796875 C-279.95564489 218.33151498 -279.53084139 207.98462286 -279.375 197.4375 C-279.32409083 194.95695083 -279.26958159 192.47647211 -279.2109375 189.99609375 C-279.19337402 188.91513428 -279.17581055 187.8341748 -279.15771484 186.72045898 C-279 184 -279 184 -278 181 C-277.79831626 178.66943228 -277.63622631 176.33530825 -277.5 174 C-277.11111111 167.33333333 -277.11111111 167.33333333 -276 164 C-275.80699018 160.7102548 -275.68288047 157.42248041 -275.57421875 154.12890625 C-274.89629521 150.43491471 -273.97482144 149.22977607 -271 147 C-266.68443267 146.28073878 -264.68104142 146.58303587 -260.9375 148.875 C-258.4634232 151.16914394 -257.07191486 153.59545098 -255.5 156.5625 C-251.63544255 163.43054639 -245.58912502 167.78146386 -239.578125 172.68701172 C-235.26136851 176.27852106 -231.53083384 180.35854826 -227.89453125 184.62109375 C-223.70442777 189.42598058 -219.17553 193.85226725 -214.625 198.3125 C-208.69966196 204.17003594 -203.10010312 209.99539239 -197.984375 216.57421875 C-195.00336054 220.21833289 -191.64985796 223.44828493 -188.26171875 226.7109375 C-182 233.04835924 -182 233.04835924 -182 236 C-181.41049561 236.26425781 -180.82099121 236.52851563 -180.21362305 236.80078125 C-177.91966066 238.04352342 -176.41436609 239.34170182 -174.58203125 241.1875 C-173.66067383 242.11175781 -173.66067383 242.11175781 -172.72070312 243.0546875 C-172.09099609 243.69664062 -171.46128906 244.33859375 -170.8125 245 C-170.17119141 245.64195312 -169.52988281 246.28390625 -168.86914062 246.9453125 C-163.14138901 252.72749893 -163.14138901 252.72749893 -162.625 257.375 C-163 261 -163 261 -165.0859375 263.19921875 C-168.65554142 265.40509999 -170.83059636 265.50489338 -175 265.4375 C-176.19625 265.43621094 -177.3925 265.43492187 -178.625 265.43359375 C-184.28520373 264.7064148 -187.2615916 262.04813433 -190.875 257.8125 C-191.57109375 257.00683594 -192.2671875 256.20117188 -192.984375 255.37109375 C-193.64953125 254.58863281 -194.3146875 253.80617188 -195 253 C-199.49153415 247.76358272 -204.14440324 242.70739359 -208.875 237.6875 C-213.84276734 232.41165914 -218.51665968 227.02717324 -223.04296875 221.3671875 C-225.8160604 218.01290897 -228.8551988 215.0014938 -232 212 C-233.66666667 210.33333333 -235.33333333 208.66666667 -237 207 C-237.63035156 206.39285156 -238.26070312 205.78570312 -238.91015625 205.16015625 C-243.16010737 201.02141881 -246.62263552 196.86737822 -250 192 C-250.66 191.67 -251.32 191.34 -252 191 C-252.15263306 192.66337402 -252.15263306 192.66337402 -252.30834961 194.36035156 C-252.71632196 197.64481908 -253.42768875 200.66084853 -254.41235352 203.81933594 C-259.28251748 219.53581516 -259.58425457 233.90977342 -258.9375 250.25 C-258.86751848 252.72127309 -258.80044701 255.19263035 -258.73632812 257.6640625 C-258.60808748 262.13253489 -258.47497695 266.60045366 -258.30053711 271.06738281 C-258.2668956 271.95065247 -258.23325409 272.83392212 -258.19859314 273.74395752 C-258.07314797 276.16692507 -258.07314797 276.16692507 -257 279 C-256.90921195 280.66871407 -256.87488522 282.34078116 -256.87402344 284.01196289 C-256.87021667 285.03475845 -256.86640991 286.05755402 -256.86248779 287.11134338 C-256.86146057 288.22057663 -256.86043335 289.32980988 -256.859375 290.47265625 C-256.84101937 292.84180628 -256.8214466 295.21094712 -256.80078125 297.58007812 C-256.77205068 301.29873853 -256.75000607 305.01681784 -256.74951172 308.7355957 C-256.73692395 322.11729523 -256.51927333 334.40681583 -252.11621094 347.13525391 C-248.78970725 357.23990119 -250.57708115 368.88059306 -253.203125 378.9140625 C-256.90847756 393.26322192 -256.60823275 408.28165494 -257 423 C-241.09855904 417.91600834 -227.38116213 410.98387226 -214 401 C-212.85337891 400.14921875 -212.85337891 400.14921875 -211.68359375 399.28125 C-210.46532024 398.36563734 -209.25151236 397.4440426 -208.04296875 396.515625 C-204.29518608 393.73524321 -200.40469922 391.15203719 -196.5390625 388.5390625 C-194.51972668 387.15436669 -192.68925802 385.72564773 -190.85058594 384.10229492 C-184.10400511 378.22212726 -177.50819767 375.62321969 -169 373.0625 C-167.68328505 372.64754002 -166.36737619 372.23001441 -165.05224609 371.81005859 C-162.36370823 370.95264824 -159.67267454 370.10393132 -156.97949219 369.26123047 C-150.82464089 367.32371701 -144.72459729 365.22944921 -138.625 363.125 C-137.56925781 362.76801025 -136.51351562 362.41102051 -135.42578125 362.04321289 C-125.30665166 359.02902861 -125.30665166 359.02902861 -117.30859375 352.73828125 C-116.87740234 351.53751953 -116.87740234 351.53751953 -116.4375 350.3125 C-116.12683594 349.52488281 -115.81617188 348.73726563 -115.49609375 347.92578125 C-114.28633836 340.79108213 -116.43310831 333.74964729 -118.546875 326.96875 C-118.79995422 326.13396118 -119.05303345 325.29917236 -119.31378174 324.43908691 C-120.11846163 321.79040294 -120.93386362 319.1451736 -121.75 316.5 C-122.28199526 314.75803993 -122.81325058 313.0158537 -123.34375 311.2734375 C-124.13052944 308.68963026 -124.91809325 306.10608996 -125.70950317 303.5236969 C-127.63059952 297.24975812 -129.497281 290.9613029 -131.30950928 284.6550293 C-132.93725796 279.04437806 -134.87919915 273.59107831 -136.89453125 268.109375 C-137.81506015 265.52018416 -138.59528073 262.96209983 -139.3125 260.3125 C-140.97396637 254.58137444 -143.39983054 249.18369418 -145.75195312 243.71069336 C-148.27065923 237.82066509 -150.58207649 231.87932749 -152.8125 225.875 C-155.85057774 217.7813353 -159.12257374 209.8062194 -162.5625 201.875 C-162.99731689 200.85647949 -163.43213379 199.83795898 -163.88012695 198.78857422 C-166.16638786 193.58606428 -168.64759334 188.90382165 -171.83984375 184.1953125 C-174.65186688 179.87443656 -176.02352304 177.25774035 -175 172 C-173.74099529 168.14474772 -172.11816826 164.46948915 -170.48828125 160.75976562 C-167.12893894 152.73162308 -167.65251086 146.07054403 -169.5625 137.6875 C-169.73233398 136.92203857 -169.90216797 136.15657715 -170.07714844 135.36791992 C-171.69515166 128.5039381 -174.04550201 121.97977074 -176.71313477 115.45776367 C-177.00889404 114.71502197 -177.30465332 113.97228027 -177.609375 113.20703125 C-178.0110791 112.23987183 -178.0110791 112.23987183 -178.42089844 111.25317383 C-180.01628519 105.045828 -178.755479 100.63312405 -175.9296875 95.03515625 C-175.61097687 94.39815292 -175.29226624 93.7611496 -174.96389771 93.10484314 C-174.28956499 91.76451838 -173.60843698 90.42759297 -172.92089844 89.09399414 C-171.88357835 87.07916211 -170.86997555 85.05373291 -169.859375 83.02539062 C-166.01834069 75.40235887 -162.08832354 68.08832354 -156 62 C-153.1875 61.5 -153.1875 61.5 -150 62 C-146.4213234 64.80364105 -145.20549412 66.56867274 -144.5541687 71.10534668 C-144.4195587 74.38666716 -144.37027175 77.63948225 -144.40841484 80.92205048 C-144.43398987 83.14378681 -144.42898707 85.36368144 -144.41651917 87.58551025 C-144.39582543 92.30721165 -144.41539349 97.02833681 -144.4375 101.75 C-144.45869574 107.2123648 -144.46297544 112.67412906 -144.43699837 118.13648224 C-144.43367063 120.30918188 -144.45474687 122.48069854 -144.47740173 124.65325928 C-144.49089985 131.71436614 -144.02486545 137.58768784 -140.89866638 144.01446533 C-139.54568907 147.00376527 -139.60285237 149.75168091 -139.625 153 C-139.23478126 168.4972586 -134.37427465 184.22002363 -129.859375 198.97265625 C-128.73119426 202.94692933 -127.86922259 206.96244409 -127 211 C-126.69092953 212.40643163 -126.3810521 213.81268621 -126.0703125 215.21875 C-125.9170752 215.91395752 -125.76383789 216.60916504 -125.60595703 217.32543945 C-124.91709697 220.43999607 -124.22143134 223.55300591 -123.5234375 226.66552734 C-123.18884796 228.15775925 -122.85540162 229.65024825 -122.5234375 231.14306641 C-120.00819267 242.40571461 -116.94905025 253.47406032 -113.71386719 264.54980469 C-112.66982003 268.13327161 -111.6470323 271.72270548 -110.625 275.3125 C-110.30789063 276.42238281 -109.99078125 277.53226562 -109.6640625 278.67578125 C-109.33535156 279.82626953 -109.33535156 279.82626953 -109 281 C-108.97873047 279.52853516 -108.97873047 279.52853516 -108.95703125 278.02734375 C-108.49821986 262.08464526 -102.86014361 249.12471291 -96.01025391 234.9140625 C-89.38791565 220.9850389 -87.44222425 209.41733546 -88.38378906 194.21484375 C-88.91700329 184.96126772 -88.4469087 178.73239161 -82.10131836 171.35546875 C-81.4078833 170.57816406 -80.71444824 169.80085937 -80 169 C-74.54710352 161.36994217 -72.05816501 154.19660423 -70.11767578 145.15844727 C-68.10163396 135.92051335 -65.33939579 126.95357232 -62.52368164 117.93673706 C-60.15445056 110.34037365 -57.86894904 102.76410714 -56.03125 95.01953125 C-52.26234497 79.27740373 -47.25910217 66.4790693 -38.68457031 52.75439453 C-35.82443968 48.07787369 -33.2292475 43.25979811 -30.625 38.4375 C-30.1292749 37.52202393 -29.6335498 36.60654785 -29.12280273 35.66333008 C-28.17800942 33.91417924 -27.23544329 32.16382305 -26.29541016 30.41210938 C-25.47390283 28.88242743 -24.6485174 27.35481674 -23.81787109 25.83007812 C-19.3162812 17.82099434 -19.3162812 17.82099434 -17.4375 8.9375 C-16.93632664 4.42693972 -16.93632664 4.42693972 -14.0625 2 C-9.00346886 -1.30385707 -5.86018315 -1.38454877 0 0 Z " fill="#F9F9F9" transform="translate(955,27)"/>
<path d="M0 0 C3.9375 0.4375 3.9375 0.4375 5.59912109 1.6796875 C7.19381943 3.77414719 7.69177972 5.44036338 8.2890625 8 C8.60617188 9.31871094 8.60617188 9.31871094 8.9296875 10.6640625 C9.13851562 11.57929687 9.34734375 12.49453125 9.5625 13.4375 C9.99141645 15.25018262 10.42107254 17.06269043 10.8515625 18.875 C11.1292749 20.07962891 11.1292749 20.07962891 11.41259766 21.30859375 C11.94810647 23.60253133 11.94810647 23.60253133 12.9375 26.4375 C14.1440625 26.5303125 14.1440625 26.5303125 15.375 26.625 C19.37256106 27.53672445 22.20585368 29.13049798 25.71875 31.1796875 C28.68712825 32.86246531 31.7942573 34.11402939 34.9375 35.4375 C36.52430746 36.24319398 38.10735742 37.05631195 39.6875 37.875 C44.14296805 40.14014635 48.65703024 41.8638129 53.39453125 43.4453125 C56.12700867 44.5114404 58.44735942 45.8959844 60.9375 47.4375 C63.26276375 48.46598204 65.59084843 49.46112319 67.9375 50.4375 C74.2163603 53.12389226 80.34090059 56.08882653 86.46582031 59.10742188 C97.74815972 64.64862148 108.94204407 69.64037726 120.9375 73.4375 C122.29938888 73.89746921 123.66005977 74.36105938 125.01953125 74.828125 C131.27094755 76.97053667 137.48052719 79.01477718 143.9375 80.4375 C144.59766113 80.59863281 145.25782227 80.75976562 145.93798828 80.92578125 C154.37526713 82.83845013 162.94697101 83.04141347 171.56323242 83.31567383 C180.21150871 83.60686505 186.68129041 84.495699 193.9375 89.4375 C195.15822983 90.09639958 196.38976003 90.73581051 197.6328125 91.3515625 C199.92552273 92.49530633 202.21718561 93.64115197 204.5078125 94.7890625 C213.29786914 99.29270307 213.29786914 99.29270307 222.9375 99.4375 C231.30118812 95.78705049 237.09570872 88.17734442 242.9375 81.4375 C243.91396484 80.31214844 243.91396484 80.31214844 244.91015625 79.1640625 C245.47605469 78.51179688 246.04195313 77.85953125 246.625 77.1875 C247.72699825 75.93558791 248.83121044 74.68562156 249.9375 73.4375 C250.90623047 72.31601563 250.90623047 72.31601563 251.89453125 71.171875 C256.97976295 65.61020668 256.97976295 65.61020668 261.75 64.75 C264.9375 65.4375 264.9375 65.4375 266.875 66.5625 C268.42278015 69.29387674 268.16434118 71.32977587 267.9375 74.4375 C263.71819565 84.56383043 255.92081412 93.59096974 249.45605469 102.36572266 C247.2544282 105.36942079 245.09489197 108.40191316 242.9375 111.4375 C243.845 111.705625 244.7525 111.97375 245.6875 112.25 C250.88621795 114.14953156 250.88621795 114.14953156 252.9375 116.4375 C253.4375 119.9375 253.4375 119.9375 252.9375 123.4375 C250.14881685 126.08682863 247.48693213 127.03380038 243.796875 127.9453125 C228.5381024 131.62206946 228.5381024 131.62206946 217.9375 142.4375 C216.76669848 143.92706427 215.59497064 145.41599977 214.40722656 146.89208984 C208.62325777 154.1451779 203.44911755 161.83999585 198.24707031 169.51367188 C196.26895242 172.4196318 194.25849338 175.30244765 192.25 178.1875 C189.48034096 182.18267189 186.75024742 186.19929749 184.0625 190.25 C179.10514403 197.70562824 174.08450996 205.11140175 168.9375 212.4375 C168.44169434 213.14583984 167.94588867 213.85417969 167.43505859 214.58398438 C152.45726646 235.81417317 152.45726646 235.81417317 140.9375 237.8125 C138.93955044 238.03965706 136.93940476 238.24834365 134.9375 238.4375 C133.05812554 238.69950395 131.18230366 238.98919101 129.3125 239.3125 C128.51585937 239.43367187 127.71921875 239.55484375 126.8984375 239.6796875 C124.80479976 240.26006358 124.80479976 240.26006358 123.8828125 242.16796875 C123.57085937 242.91691406 123.25890625 243.66585937 122.9375 244.4375 C118.60395722 251.3945356 113.84911088 257.9701344 108.80419922 264.42163086 C105.17468824 269.07790224 101.73196456 273.85221209 98.33642578 278.68115234 C91.91755814 287.78412791 91.91755814 287.78412791 87.9375 290.4375 C89.70009155 290.42009766 89.70009155 290.42009766 91.49829102 290.40234375 C95.88033 290.36968111 100.26084966 290.3897379 104.64282227 290.42529297 C106.53506771 290.43337741 108.42742997 290.42738171 110.31958008 290.40673828 C126.01099099 290.24986545 126.01099099 290.24986545 130.70654297 293.14453125 C133.08429027 295.80277505 134.49362335 298.35073839 135.83544922 301.63598633 C136.77813405 303.58108387 136.77813405 303.58108387 138.72729492 304.15112305 C139.45021729 304.24949463 140.17313965 304.34786621 140.91796875 304.44921875 C141.74184082 304.56668457 142.56571289 304.68415039 143.41455078 304.80517578 C144.75622314 304.96348877 144.75622314 304.96348877 146.125 305.125 C147.04522949 305.24601074 147.96545898 305.36702148 148.91357422 305.49169922 C157.10694362 306.49640339 165.3112977 306.91405461 173.55932617 307.1472168 C174.48076416 307.17340088 175.40220215 307.19958496 176.3515625 307.2265625 C177.1657666 307.24412598 177.9799707 307.26168945 178.81884766 307.27978516 C180.9375 307.4375 180.9375 307.4375 183.9375 308.4375 C185.3639314 308.55072825 186.7947249 308.61345476 188.2253418 308.64282227 C189.08600754 308.66276749 189.94667328 308.68271271 190.8334198 308.70326233 C191.75850845 308.71997482 192.68359711 308.73668732 193.63671875 308.75390625 C194.58690384 308.77468735 195.53708893 308.79546844 196.5160675 308.81687927 C199.55230456 308.88228052 202.58862831 308.94121604 205.625 309 C207.68295169 309.04319417 209.74089459 309.08680876 211.79882812 309.13085938 C216.84496316 309.23795231 221.89118543 309.33924646 226.9375 309.4375 C227.246875 308.66172607 227.55625 307.88595215 227.875 307.08666992 C228.8624113 304.62472139 229.88017853 302.1826654 230.9375 299.75 C231.2675 298.98300781 231.5975 298.21601563 231.9375 297.42578125 C232.9375 295.4375 232.9375 295.4375 234.9375 293.4375 C238.4375 293.1875 238.4375 293.1875 241.9375 293.4375 C244.35200803 295.85200803 244.25275056 296.51501015 244.296875 299.83203125 C244.16772884 306.03661366 242.29922542 311.34309394 240.1875 317.125 C239.44157632 319.24738851 238.69937502 321.37108901 237.9609375 323.49609375 C237.60612305 324.51558105 237.25130859 325.53506836 236.88574219 326.58544922 C235.66564146 330.25517547 234.72201412 333.92895233 233.8125 337.6875 C231.48897264 346.61104688 229.11331869 355.0055958 220.875 360 C219.23799358 360.8301407 217.59208924 361.6429825 215.9375 362.4375 C206.84020196 367.35606927 202.5941887 376.59554047 197.9375 385.4375 C192.4349406 395.47579166 186.37420649 404.97933067 179.9375 414.4375 C164.11730757 437.73702504 149.82220537 461.55214034 138.125 487.1875 C137.81016663 487.87493286 137.49533325 488.56236572 137.17095947 489.27062988 C131.92553601 500.76570769 127.08428878 512.42867031 123.3125 524.5 C121.75888788 529.27964199 119.38032497 535.80471483 114.9375 538.4375 C110.33582147 538.27016624 107.35089692 537.57782517 103.9375 534.4375 C103.82019531 535.67113281 103.70289063 536.90476562 103.58203125 538.17578125 C102.92556978 544.05864172 101.796436 549.82592957 100.625 555.625 C100.40352295 556.72690674 100.1820459 557.82881348 99.95385742 558.96411133 C98.32190069 566.92012 96.43547516 574.70359438 93.9375 582.4375 C93.44830078 584.04044922 93.44830078 584.04044922 92.94921875 585.67578125 C91.9375 588.4375 91.9375 588.4375 89.9375 590.4375 C87.5625 590.9375 87.5625 590.9375 84.9375 590.4375 C77.77285825 582.21923447 77.2080734 571.15268772 76.25 560.75 C76.12044922 559.45771484 75.99089844 558.16542969 75.85742188 556.83398438 C75.32169644 551.34350734 74.8640303 545.95814907 74.9375 540.4375 C74.2775 540.4375 73.6175 540.4375 72.9375 540.4375 C72.79054688 539.52613281 72.64359375 538.61476563 72.4921875 537.67578125 C70.99055339 529.00254972 68.97033558 520.64255643 66.47973633 512.20214844 C64.35490691 504.9819665 62.41334995 497.72328039 60.50900269 490.44204712 C57.93151312 480.60790218 55.25495657 470.81916986 52.1875 461.125 C51.9181665 460.26720947 51.64883301 459.40941895 51.37133789 458.52563477 C49.79509601 453.65427598 47.94407897 449.02068716 45.75927734 444.38916016 C44.35903458 441.06368759 44.33186617 439.01073962 44.9375 435.4375 C46.3063932 432.31158229 47.81378025 429.31011886 49.4296875 426.3046875 C52.32986175 420.78984838 53.26531359 416.54976633 53.1875 410.3125 C53.18145752 409.52987793 53.17541504 408.74725586 53.16918945 407.94091797 C52.97106663 395.85902806 51.88250709 383.89371964 48.65234375 372.2265625 C47.90277664 369.30202197 47.42741116 366.42559575 47 363.4375 C44.69589896 347.70540026 41.89645418 332.34604185 34.75 318 C27.59177682 302.06718067 30.02734643 280.122584 29.80622864 263.07008362 C29.74584951 258.42850801 29.67663225 253.78706929 29.6086731 249.14559937 C29.56324072 245.6814784 29.53413549 242.21746926 29.50561523 238.75317383 C29.39629423 224.19765628 29.39629423 224.19765628 26.63891602 209.96948242 C25.86196284 207.16482479 25.53684894 204.45539674 25.25 201.5625 C23.62007559 190.13909816 18.83516819 179.26692662 14.84960938 168.49804688 C10.0668213 155.50612716 7.54505517 145.59207123 11.37890625 132.01171875 C12.92416743 122.12420841 9.55733063 112.60690722 6.86425781 103.18115234 C6.1954905 100.84046675 5.53803366 98.49685317 4.8828125 96.15234375 C-0.4542178 76.92629779 -0.4542178 76.92629779 -7.25 58.1875 C-7.73855469 56.98609375 -8.22710937 55.7846875 -8.73046875 54.546875 C-9.93489258 51.56262039 -9.93489258 51.56262039 -11.25 49.390625 C-13.07283126 45.00881909 -11.75686231 39.76640724 -11.31738281 35.15380859 C-11.12689944 33.12381049 -10.94853454 31.09266865 -10.77636719 29.06103516 C-10.45456463 25.28857267 -10.10513253 21.51946099 -9.75 17.75 C-9.64469971 16.50798828 -9.53939941 15.26597656 -9.4309082 13.98632812 C-9.31320068 12.81134766 -9.19549316 11.63636719 -9.07421875 10.42578125 C-8.97584717 9.36915283 -8.87747559 8.31252441 -8.77612305 7.22387695 C-7.58231132 2.56257923 -4.89759507 -0.14154899 0 0 Z " fill="#F9F9F9" transform="translate(231.0625,77.5625)"/>
<path d="M0 0 C1.37460782 2.56991897 2.58351285 5.0876143 3.75 7.75 C4.46353961 9.31759517 5.17971342 10.88399382 5.8984375 12.44921875 C6.25389648 13.22571777 6.60935547 14.0022168 6.97558594 14.80224609 C11.06883768 23.5838124 16.04763649 31.80636919 21.22900391 39.97314453 C24.72988525 45.50499016 27.9704418 51.15201621 31.16796875 56.86328125 C33.26264562 60.44968962 35.57768289 63.81020521 38.06640625 67.1328125 C39 69 39 69 38.765625 70.78833008 C37.78974698 73.60736037 36.34732423 75.77653452 34.68359375 78.25390625 C33.65975586 79.7843457 33.65975586 79.7843457 32.61523438 81.34570312 C31.89658203 82.40724609 31.17792969 83.46878906 30.4375 84.5625 C29.74591797 85.59697266 29.05433594 86.63144531 28.34179688 87.69726562 C25.10543818 92.51410144 21.82194014 97.27268773 18.359375 101.9296875 C11.12116788 111.79932427 4.61398868 122.19855558 -2.06860352 132.44750977 C-9.04704232 143.14146865 -16.09141772 153.74279036 -23.66447449 164.02772522 C-28.42036539 170.49148685 -32.76196485 177.18848097 -37 184 C-44.21226452 183.39385353 -50.78599514 181.43205964 -57.6875 179.3125 C-60.1104277 178.58120447 -62.53360761 177.85074409 -64.95703125 177.12109375 C-66.15150879 176.75999512 -67.34598633 176.39889648 -68.57666016 176.02685547 C-74.05599903 174.38328827 -79.55620054 172.81648564 -85.05944824 171.25531006 C-91.41918491 169.45043619 -97.77656156 167.63742159 -104.1328125 165.8203125 C-105.56669312 165.41051147 -105.56669312 165.41051147 -107.02954102 164.99243164 C-109.3530493 164.32836454 -111.67653532 163.66421966 -114 163 C-113.8802314 155.32170378 -113.75551243 147.64349828 -113.62768555 139.96533203 C-113.58493516 137.36476368 -113.54323206 134.76417786 -113.50268555 132.16357422 C-113.294821 118.8756407 -113.04704826 105.59241619 -112.52734375 92.3125 C-112.47170006 90.80683472 -112.47170006 90.80683472 -112.41493225 89.27075195 C-112.37589279 88.35253662 -112.33685333 87.43432129 -112.29663086 86.48828125 C-112.26355331 85.68946533 -112.23047577 84.89064941 -112.19639587 84.06762695 C-112 82 -112 82 -111 79 C-110.84730819 76.56219623 -110.74317303 74.14716099 -110.68359375 71.70703125 C-110.66281265 71.00100266 -110.64203156 70.29497406 -110.62062073 69.56755066 C-110.55532509 67.31596449 -110.49633353 65.06426338 -110.4375 62.8125 C-110.39429575 61.2844934 -110.35068084 59.75649836 -110.30664062 58.22851562 C-110.19966426 54.48579438 -110.09834078 50.7429577 -110 47 C-98.15618631 40.95809551 -86.16279383 35.36983501 -74 30 C-73.03384766 29.57315918 -72.06769531 29.14631836 -71.07226562 28.70654297 C-64.79286242 25.93472764 -58.50864582 23.17396885 -52.22314453 20.41601562 C-47.94828638 18.53795341 -43.67700865 16.65181792 -39.40551758 14.76611328 C-35.28373666 12.94902178 -31.15815032 11.14066904 -27.03222656 9.33300781 C-23.97339058 7.98830214 -20.92027833 6.6311281 -17.8671875 5.2734375 C-15.95334449 4.43179239 -14.03929183 3.5906238 -12.125 2.75 C-11.24489258 2.35474121 -10.36478516 1.95948242 -9.45800781 1.55224609 C-8.64944336 1.19984863 -7.84087891 0.84745117 -7.0078125 0.484375 C-6.30285645 0.17209961 -5.59790039 -0.14017578 -4.87158203 -0.46191406 C-3 -1 -3 -1 0 0 Z " fill="#010101" transform="translate(698,671)"/>
<path d="M0 0 C1.85625 0.5878125 1.85625 0.5878125 3.75 1.1875 C8.2150849 2.54229072 12.71000375 3.66366432 17.24658203 4.74462891 C24.66899322 6.52473904 31.68698635 8.40671851 38.65625 11.578125 C41.37501101 12.73423366 44.04938043 13.7269088 46.84375 14.671875 C56.97678288 18.1146425 66.52644425 21.99812903 75.9375 27.125 C76.84226074 27.61556885 77.74702148 28.1061377 78.67919922 28.61157227 C83.37327049 31.24708024 87.53296593 34.03311763 91.50512695 37.67431641 C98.24116378 43.64796984 105.80760993 44.41915637 114.45703125 45.38671875 C123.60252845 46.41335026 132.44185987 48.0852918 141.42089844 50.11035156 C147.26190973 51.42317734 153.09313429 52.59064095 159 53.5625 C166.82217655 54.85899335 174.37939735 56.81476168 182 59 C176.15360434 66.12560702 169.5769716 72.48991988 163.02514648 78.9543457 C157.73715934 84.17808232 152.54553931 89.4103601 147.71459961 95.06713867 C143.62145041 99.6813295 139.09193722 103.90347715 134.671875 108.20117188 C130.27179277 112.53764747 126.31552127 116.96711572 122.59521484 121.89916992 C120.28927356 124.93599648 117.81172318 127.80944993 115.3125 130.6875 C114.26809512 131.89701968 113.2238283 133.10665859 112.1796875 134.31640625 C111.65342773 134.92500488 111.12716797 135.53360352 110.58496094 136.16064453 C109.03091198 137.96412648 107.48644421 139.77531745 105.9453125 141.58984375 C100.67131363 147.79349376 95.32561568 153.90658838 89.79272461 159.88110352 C87.30728997 162.56526453 84.87546697 165.28077739 82.5 168.0625 C78.83788357 172.29682213 74.84612473 176.1855488 70.84375 180.09375 C68.02583949 182.90766347 65.43981479 185.90275887 62.83398438 188.91210938 C59.20364255 193.04505443 55.38798881 197.00690665 51.60546875 201 C46.26229058 206.66399011 41.06043125 212.42456508 36.1875 218.5 C35.465625 219.325 34.74375 220.15 34 221 C33.34 221 32.68 221 32 221 C30.75884691 218.51769381 30.62111125 216.44322738 30.31640625 213.6796875 C30.19442871 212.59461914 30.07245117 211.50955078 29.94677734 210.39160156 C29.81996582 209.23112305 29.6931543 208.07064453 29.5625 206.875 C29.29625364 204.49211134 29.02932835 202.10929844 28.76171875 199.7265625 C28.63200684 198.56801758 28.50229492 197.40947266 28.36865234 196.21582031 C27.91072863 192.22126988 27.39788962 188.23654189 26.875 184.25 C25.98240788 177.18364575 25.30389065 170.11743882 25 163 C24.95198242 162.24267578 24.90396484 161.48535156 24.85449219 160.70507812 C24.60236142 154.15986536 25.98240689 149.24750944 28.5 143.25 C32.16687464 134.34473302 32.70593042 129.13541557 29.375 119.875 C28.82166631 118.27692317 28.27098195 116.67792707 27.72265625 115.078125 C27.43793457 114.24861328 27.15321289 113.41910156 26.85986328 112.56445312 C21.56441644 96.77133171 17.46086236 80.88264996 14.55029297 64.49023438 C12.35396446 52.20744938 9.57253156 40.08378851 6.5065918 27.99145508 C5.22693082 22.94288635 4.00550624 17.88223026 2.8125 12.8125 C2.64556641 12.10536865 2.47863281 11.3982373 2.30664062 10.66967773 C1.47565889 7.12389921 0.68751697 3.57647717 0 0 Z " fill="#020202" transform="translate(253,139)"/>
<path d="M0 0 C14.71602881 1.5865946 28.59987508 3.93793788 42.7421875 8.37890625 C58.82989368 13.41280141 74.81635084 17.4635701 91.6875 18.375 C104.30579026 19.19455301 116.56837648 22.33181803 128.54296875 26.27758789 C133.05268785 27.75560674 137.49264956 28.82005273 142.1796875 29.54296875 C144 30 144 30 146 32 C145.79820887 37.5896142 144.23421157 40.67778655 140.875 45.0625 C139.95689442 46.29092493 139.0417242 47.52154711 138.12890625 48.75390625 C137.37697998 49.76348389 137.37697998 49.76348389 136.60986328 50.79345703 C133.57264576 54.95638878 130.7028205 59.23442519 127.8125 63.5 C127.17771729 64.43360352 126.54293457 65.36720703 125.88891602 66.32910156 C123.92446083 69.21839659 121.96201378 72.10904666 120 75 C111.11758258 88.08506723 102.19499468 101.13200472 93 114 C92.319375 114.95519531 91.63875 115.91039062 90.9375 116.89453125 C87.51661787 121.64813204 83.99715363 126.31633213 80.42211914 130.9543457 C71.31094244 142.78198069 62.22715251 154.65097218 54.91796875 167.69921875 C51.87764416 172.93154925 48.56849061 177.99656603 45.26171875 183.06396484 C41.96784794 188.19123692 39.30522398 193.35820138 37 199 C36.01 198.67 35.02 198.34 34 198 C30.83549048 191.67098096 30.8077489 183.00049048 30 176 C29.34 176 28.68 176 28 176 C25.76344048 166.29310462 23.67861148 156.59578521 22.00683594 146.7746582 C21.40340675 143.24177147 20.75735261 139.7391402 19.9375 136.25 C19.62082165 134.83426149 19.30849436 133.41754433 19 132 C18.81308594 131.15953125 18.62617188 130.3190625 18.43359375 129.453125 C16.94884758 121.6036977 16.818189 113.91120238 16.8125 105.9375 C16.81169434 104.83019531 16.81088867 103.72289062 16.81005859 102.58203125 C16.86838239 94.14192949 16.86838239 94.14192949 18 90 C18.6402189 81.13543059 17.47399359 73.47629871 15 65 C14.30647986 62.45974997 13.61822683 59.91865139 12.9375 57.375 C12.59847656 56.11558594 12.25945312 54.85617187 11.91015625 53.55859375 C10.95065496 49.80706724 10.15833845 46.05946809 9.4921875 42.24609375 C9.01843977 39.89107187 9.01843977 39.89107187 8.07714844 37.25 C6.2567167 31.75734649 4.84612192 26.1569494 3.375 20.5625 C2.88773437 18.75942383 2.88773437 18.75942383 2.390625 16.91992188 C0.87850622 11.16052828 -0.4745099 5.96652267 0 0 Z " fill="#020202" transform="translate(289,385)"/>
<path d="M0 0 C0.7925618 2.10383273 1.58406747 4.20805452 2.375 6.3125 C2.64119141 7.01979248 2.90738281 7.72708496 3.18164062 8.45581055 C4.85411306 12.9105924 6.50420991 17.37273377 8.1328125 21.84375 C16.93380965 45.93861857 26.40479213 69.78540037 36.46484375 93.3828125 C38.05515051 97.1299475 39.57957181 100.89759378 41.07421875 104.68359375 C42.1871158 107.46818426 43.34241897 110.23369609 44.5 113 C46.11521961 116.87052625 47.72885462 120.74143147 49.3125 124.625 C49.63863281 125.42164063 49.96476563 126.21828125 50.30078125 127.0390625 C51 129 51 129 51 131 C32.49975633 139.70171121 13.93355859 148.22800494 -4.74267578 156.54541016 C-8.6742942 158.30111264 -12.59769676 160.07458502 -16.52050781 161.84985352 C-23.5173099 165.0156175 -30.52932321 168.10112911 -37.640625 171.00390625 C-39.685721 171.86731599 -41.65392295 172.79411019 -43.625 173.8125 C-46 175 -46 175 -48 175 C-48.02714735 172.77090129 -48.04646254 170.54170633 -48.0625 168.3125 C-48.07990234 166.45044922 -48.07990234 166.45044922 -48.09765625 164.55078125 C-48 161 -48 161 -47.49915886 158.64252281 C-46.9529531 155.750936 -46.89300997 153.1110293 -46.915802 150.16885376 C-46.92190994 149.00252914 -46.92801788 147.83620453 -46.93431091 146.63453674 C-46.94583694 145.36375778 -46.95736298 144.09297882 -46.96923828 142.78369141 C-46.97767087 141.42487431 -46.98550355 140.06605338 -46.99278259 138.70722961 C-47.0045233 136.53838963 -47.01671641 134.3695599 -47.03075147 132.20073342 C-47.06537282 126.82515472 -47.08148175 121.44975049 -47.08639526 116.07406616 C-47.08712795 115.29293666 -47.08786064 114.51180715 -47.08861554 113.70700705 C-47.09127914 110.4864862 -47.09332588 107.26596524 -47.0950911 104.04544377 C-47.10087599 94.91011867 -47.12471387 85.77564877 -47.20214844 76.640625 C-47.26359723 69.37709651 -47.28619796 62.11461762 -47.26333606 54.85084856 C-47.25270539 51.00952355 -47.26160312 47.17049579 -47.31766129 43.32951736 C-47.36997382 39.71521607 -47.3706171 36.10452896 -47.33229256 32.49008751 C-47.32494642 30.53868838 -47.37205062 28.58731995 -47.42097473 26.63652039 C-47.26266594 18.23771027 -47.26266594 18.23771027 -43.63833237 14.685009 C-40.8183527 12.84078027 -38.08212804 11.35584025 -35 10 C-34.13851915 9.61228235 -33.27703831 9.2245647 -32.38945198 8.82509804 C-28.82275275 7.59348654 -25.33292867 8.05079209 -21.625 8.25 C-14.60193903 8.55912391 -14.60193903 8.55912391 -8.6875 5.125 C-8.23761719 4.59132813 -7.78773438 4.05765625 -7.32421875 3.5078125 C-5.27620369 1.17585435 -3.11288811 0 0 0 Z " fill="#020202" transform="translate(637,519)"/>
<path d="M0 0 C0.66 0 1.32 0 2 0 C2.66418945 1.25321045 2.66418945 1.25321045 3.34179688 2.53173828 C5.02444109 5.70513714 6.71006624 8.87694517 8.39648438 12.04833984 C9.11862126 13.40729921 9.84000559 14.7666588 10.56054688 16.12646484 C15.53903266 25.52022783 20.68207475 34.79390969 26 44 C38.95222596 66.59641003 51.24918778 89.52643265 63.16967773 112.68066406 C64.77223899 115.79110411 66.38299982 118.89704242 68 122 C68.90105469 123.73080811 68.90105469 123.73080811 69.8203125 125.49658203 C70.72910156 127.21723877 70.72910156 127.21723877 71.65625 128.97265625 C72.20087891 130.007854 72.74550781 131.04305176 73.30664062 132.10961914 C74.94777758 135.07205718 74.94777758 135.07205718 77.20898438 137.75170898 C79 140 79 140 79 142 C74.70573907 140.62700501 70.44325569 139.25280967 66.3125 137.4375 C63.23085883 136.10018402 60.19122298 135.04364671 57 134 C55.70285568 133.56851713 54.40599792 133.13617218 53.109375 132.703125 C52.40844727 132.46948242 51.70751953 132.23583984 50.98535156 131.99511719 C42.28710938 129.09570312 33.58886719 126.19628906 24.890625 123.296875 C24.22519684 123.07591156 23.55976868 122.85494812 22.87417603 122.62728882 C21.17201187 122.05757256 19.47508192 121.4722771 17.77880859 120.88525391 C15.27088994 120.08629827 12.87822404 119.53396693 10.2890625 119.0859375 C4.82196279 118.03748062 -0.35128561 116.3852562 -5.625 114.625 C-13.3470548 112.104688 -21.02389627 109.91535824 -28.92578125 108.03125 C-34.64320655 106.62931965 -40.25664679 104.86828587 -45.88623047 103.15356445 C-51.89562186 101.3236724 -57.9218458 99.58924215 -64 98 C-58.63833865 88.21618292 -52.74628916 78.86929307 -46.625 69.546875 C-43.38460428 64.60794218 -40.20789005 59.63039334 -37.03955078 54.64501953 C-27.16352255 39.11338691 -16.8977929 23.90065425 -6.12109375 8.98046875 C-4.62544595 6.87884947 -3.22582336 4.78696022 -1.84765625 2.61328125 C-0.93306641 1.31970703 -0.93306641 1.31970703 0 0 Z " fill="#030303" transform="translate(748,765)"/>
<path d="M0 0 C0.02696365 1.79158489 0.04637917 3.58328473 0.0625 5.375 C0.07410156 6.37273438 0.08570313 7.37046875 0.09765625 8.3984375 C0 11 0 11 -1 13 C-1.14072467 14.42762548 -1.22578527 15.86096172 -1.28125 17.29443359 C-1.31798828 18.1823056 -1.35472656 19.07017761 -1.39257812 19.98495483 C-1.44575195 21.42712875 -1.44575195 21.42712875 -1.5 22.8984375 C-1.5609082 24.37819565 -1.5609082 24.37819565 -1.62304688 25.8878479 C-1.75302152 29.0500748 -1.87714676 32.21248891 -2 35.375 C-2.1619042 39.52885463 -2.32936892 43.68243334 -2.5 47.8359375 C-2.55317383 49.27203873 -2.55317383 49.27203873 -2.60742188 50.7371521 C-2.64416016 51.63132843 -2.68089844 52.52550476 -2.71875 53.44677734 C-2.74904297 54.23128265 -2.77933594 55.01578796 -2.81054688 55.82406616 C-2.99829276 57.98039182 -3.45243561 59.91057663 -4 62 C-4.13475368 63.94159909 -4.2236851 65.88661308 -4.28125 67.83203125 C-4.31863281 68.96060547 -4.35601563 70.08917969 -4.39453125 71.25195312 C-4.42933594 72.42693359 -4.46414063 73.60191406 -4.5 74.8125 C-4.91940872 88.83162477 -4.91940872 88.83162477 -6 95 C-10.92191164 94.40924474 -15.40114423 93.38491533 -20.1171875 91.8671875 C-21.13919754 91.5405159 -21.13919754 91.5405159 -22.18185425 91.20724487 C-24.45666512 90.47783201 -26.72844821 89.73949583 -29 89 C-30.6565498 88.46378772 -32.31312608 87.92765724 -33.96972656 87.39160156 C-38.42502849 85.94692928 -42.87763501 84.49411105 -47.32946777 83.03878784 C-67.28593005 76.51523351 -67.28593005 76.51523351 -87.28955078 70.13818359 C-90.92143439 68.99256587 -94.54121906 67.8263235 -98.140625 66.58203125 C-106.36101623 63.74101839 -114.4512123 61.62018627 -123 60 C-119.20458768 56.8773195 -114.9572576 54.70941803 -110.625 52.4375 C-109.80008057 52.00421387 -108.97516113 51.57092773 -108.12524414 51.12451172 C-97.69725002 45.71812523 -86.98509489 40.41052867 -75.99356079 36.23840332 C-68.68935024 33.44042975 -61.75118983 29.99269413 -54.78089905 26.46561432 C-52.61397182 25.36923389 -50.44447732 24.27808712 -48.27429199 23.18817139 C-43.68057421 20.87997658 -39.09007209 18.56543423 -34.5 16.25 C-29.15011794 13.55144225 -23.79894293 10.85551504 -18.44438171 8.16625214 C-16.30554238 7.09034488 -14.16916358 6.00965774 -12.03283691 4.92877197 C-10.73099345 4.2742204 -9.42903836 3.61989079 -8.12695312 2.96582031 C-6.98907349 2.39164368 -5.85119385 1.81746704 -4.67883301 1.22589111 C-2 0 -2 0 0 0 Z " fill="#040404" transform="translate(563,730)"/>
<path d="M0 0 C1 2 1 2 0.03125 5.359375 C-0.47264532 6.82517475 -0.98364264 8.28854372 -1.5 9.75 C-2.06113649 11.38889866 -2.62097524 13.02824207 -3.1796875 14.66796875 C-3.47713867 15.53599121 -3.77458984 16.40401367 -4.08105469 17.29833984 C-5.63711607 21.87309418 -7.14306559 26.46324082 -8.625 31.0625 C-9.07564819 32.46060913 -9.07564819 32.46060913 -9.53540039 33.88696289 C-11.29258052 39.44723496 -12.73613004 44.9843673 -13.9375 50.6875 C-16.83807926 64.15355226 -22.63962962 81.21598264 -32.9375 90.75 C-36.92748644 97.03725135 -34.41870816 104.98270571 -33.4375 112.0625 C-32.62850693 119.34343765 -32.32396293 126.83028589 -34 134 C-37.2630121 132.9123293 -37.87839928 132.24933287 -40 129.6875 C-48.00127562 120.28891221 -56.44809002 111.42676213 -65.25366211 102.78320312 C-69.20028881 98.88847321 -72.9371209 94.88344029 -76.54589844 90.67285156 C-77.64845376 89.40443164 -78.8116151 88.1883849 -80 87 C-80.25537109 85.00048828 -80.25537109 85.00048828 -80.2734375 82.5703125 C-80.2940625 81.69246094 -80.3146875 80.81460938 -80.3359375 79.91015625 C-80.3618683 78.06128989 -80.38016379 76.21229985 -80.390625 74.36328125 C-80.49382353 69.16727887 -80.49382353 69.16727887 -82.5390625 64.5 C-85.85426283 62.47930647 -89.24432508 61.65743227 -93 60.875 C-101.63028817 58.98321582 -101.63028817 58.98321582 -105 57 C-105 56.34 -105 55.68 -105 55 C-104.08226807 54.54898926 -104.08226807 54.54898926 -103.14599609 54.08886719 C-90.019695 47.62225153 -77.05787437 40.93639839 -64.2421875 33.875 C-56.98981108 29.88178869 -49.65429513 26.04920558 -42.31787109 22.21337891 C-39.20177452 20.58213813 -36.0901464 18.94247341 -32.97851562 17.30273438 C-21.9960802 11.5153099 -10.99883371 5.7561829 0 0 Z " fill="#040303" transform="translate(818,414)"/>
<path d="M0 0 C6.03419415 0.77626854 11.74796968 2.58626924 17.5625 4.3125 C18.64515137 4.63081787 19.72780273 4.94913574 20.84326172 5.27709961 C26.11689079 6.83206273 31.37969295 8.41417448 36.625 10.0625 C43.5809864 12.23920323 50.623897 14.10211744 57.66455078 15.98266602 C58.58349121 16.22944092 59.50243164 16.47621582 60.44921875 16.73046875 C61.27768311 16.95114014 62.10614746 17.17181152 62.9597168 17.39916992 C65 18 65 18 67 19 C66.35714003 22.18103297 65.23877589 24.5744473 63.5859375 27.359375 C62.8266394 28.6438855 62.8266394 28.6438855 62.05200195 29.9543457 C61.49859131 30.87691162 60.94518066 31.79947754 60.375 32.75 C59.80031982 33.71574951 59.22563965 34.68149902 58.63354492 35.67651367 C53.66849343 43.97828256 48.54489556 52.17797029 43.39160156 60.36376953 C39.27637826 66.91285346 35.29502129 73.52244313 31.4140625 80.21240234 C28.99261752 84.36847879 26.45780466 88.4180111 23.8125 92.4375 C17.33353659 102.30746092 11.64338673 112.66754924 5.77880859 122.90820312 C3.34150512 127.14454833 0.8638483 131.35629353 -1.625 135.5625 C-4.83706668 140.99620827 -7.97703179 146.45789162 -11 152 C-11.33 152 -11.66 152 -12 152 C-12.08752292 145.72896338 -11.78157723 139.64780541 -11.12890625 133.4140625 C-10.94328717 131.55770557 -10.7585891 129.70125636 -10.57470703 127.84472656 C-10.43153046 126.40740173 -10.43153046 126.40740173 -10.28546143 124.94104004 C-9.80919094 120.03414044 -9.38753834 115.12269414 -8.96484375 110.2109375 C-8.79368916 108.24218147 -8.62246517 106.27343147 -8.45117188 104.3046875 C-8.19058767 101.30287671 -7.93117316 98.30098124 -7.67456055 95.29882812 C-7.42044768 92.33173535 -7.16179306 89.36506774 -6.90234375 86.3984375 C-6.78825417 85.0440004 -6.78825417 85.0440004 -6.67185974 83.66220093 C-6.59830765 82.82927521 -6.52475555 81.99634949 -6.44897461 81.13818359 C-6.38616806 80.40876556 -6.32336151 79.67934753 -6.25865173 78.92782593 C-6 77 -6 77 -5 74 C-4.53804135 70.93150384 -4.28409117 67.83949142 -4 64.75 C-3.91169922 63.79488525 -3.82339844 62.83977051 -3.73242188 61.85571289 C-2.89601174 52.06584204 -2.6512779 42.27296447 -2.39672852 32.45385742 C-2.08779142 21.57075401 -1.24165139 10.8132165 0 0 Z " fill="#040303" transform="translate(581,853)"/>
<path d="M0 0 C-0.60585938 0.7528125 -1.21171875 1.505625 -1.8359375 2.28125 C-7.12586452 8.95203884 -11.87263693 15.77960044 -16.3112793 23.04370117 C-18.97714271 27.3971247 -21.75104251 31.63699916 -24.6875 35.8125 C-27.3438281 39.59533373 -29.92102216 43.39546175 -32.375 47.3125 C-35.48658627 52.25443113 -38.76209478 57.07071235 -42.08911133 61.86865234 C-45.38379908 66.62783019 -48.63331955 71.41554416 -51.86328125 76.21875 C-52.72745535 77.50143987 -53.59171368 78.78407299 -54.45605469 80.06665039 C-55.75878824 81.99976149 -57.06002102 83.93379597 -58.35656738 85.87106323 C-59.57872285 87.69674537 -60.80638581 89.51860971 -62.03515625 91.33984375 C-62.7506665 92.40581787 -63.46617676 93.47179199 -64.20336914 94.57006836 C-66 97 -66 97 -68 98 C-72.97693376 88.24272968 -77.89741921 78.4631707 -82.484375 68.515625 C-82.77290848 67.89000671 -83.06144196 67.26438843 -83.35871887 66.61981201 C-84.77583458 63.54059909 -86.1834059 60.45746715 -87.58276367 57.37011719 C-90.57235491 50.67636451 -90.57235491 50.67636451 -94.37890625 44.4375 C-96 42 -96 42 -96 38 C-94.75802856 37.49569458 -94.75802856 37.49569458 -93.4909668 36.98120117 C-91.73780151 36.26927612 -91.73780151 36.26927612 -89.94921875 35.54296875 C-89.31267868 35.28449661 -88.67613861 35.02602448 -88.02030945 34.75971985 C-84.43916524 33.30543918 -80.85828773 31.85050629 -77.27783203 30.39453125 C-70.49446294 27.63638778 -63.7102231 24.88074746 -56.91796875 22.14453125 C-44.7325721 17.22575457 -32.61824645 12.16479773 -20.5625 6.9375 C-19.90699158 6.65342285 -19.25148315 6.3693457 -18.57611084 6.07666016 C-11.58145981 3.15561166 -11.58145981 3.15561166 -4.81225586 -0.22827148 C-3 -1 -3 -1 0 0 Z " fill="#040404" transform="translate(821,621)"/>
<path d="M0 0 C2.85826516 2.85826516 3.56200993 6.35249962 4.75 10.125 C8.65443603 22.43728406 13.4000388 34.44553525 18.015625 46.50390625 C18.36099304 47.40627014 18.70636108 48.30863403 19.06219482 49.23834229 C21.20019225 54.82329695 21.20019225 54.82329695 23.34277344 60.40649414 C24.40309861 63.16710265 25.45967443 65.92912198 26.515625 68.69140625 C26.83646057 69.52378311 27.15729614 70.35615997 27.487854 71.21376038 C32.3637688 83.99781479 32.3637688 83.99781479 32 90 C28.83839563 91.77998326 25.66985787 93.54726314 22.5 95.3125 C21.613125 95.81201172 20.72625 96.31152344 19.8125 96.82617188 C6.46655244 104.23513541 6.46655244 104.23513541 -1 104 C-1.02366077 95.46034143 -1.04117807 86.92069759 -1.05181217 78.38101387 C-1.05692797 74.41138642 -1.06380604 70.4417821 -1.07543945 66.47216797 C-1.13872332 44.29489266 -0.79486662 22.1635687 0 0 Z " fill="#070706" transform="translate(594,406)"/>
<path d="M0 0 C0.33 0 0.66 0 1 0 C1 18.15 1 36.3 1 55 C0.67 55 0.34 55 0 55 C-0.33 41.47 -0.66 27.94 -1 14 C-1.99 14.33 -2.98 14.66 -4 15 C-3.79503906 14.41992188 -3.59007812 13.83984375 -3.37890625 13.2421875 C-1.85990187 8.8378016 -0.5952849 4.64322223 0 0 Z " fill="#363435" transform="translate(476,376)"/>
<path d="M0 0 C0.66 0 1.32 0 2 0 C2 13.53 2 27.06 2 41 C1.67 41 1.34 41 1 41 C0.67 28.79 0.34 16.58 0 4 C-0.66 4 -1.32 4 -2 4 C-1.34 2.68 -0.68 1.36 0 0 Z " fill="#0F0F0E" transform="translate(473,390)"/>
<path d="M0 0 C0.99 0.33 1.98 0.66 3 1 C-0.63 4.96 -4.26 8.92 -8 13 C-8.99 12.34 -9.98 11.68 -11 11 C-7.37 7.37 -3.74 3.74 0 0 Z " fill="#F3F3F3" transform="translate(565,518)"/>
<path d="M0 0 C-0.99 0.66 -1.98 1.32 -3 2 C-4.67050528 3.14022976 -6.33680726 4.28663002 -8 5.4375 C-8.86625 6.03433594 -9.7325 6.63117188 -10.625 7.24609375 C-12.62273886 8.72139761 -14.31444195 10.18691617 -16 12 C-16.66 11.67 -17.32 11.34 -18 11 C-16.33325061 9.14336777 -14.64581021 7.31773139 -12.9375 5.5 C-12.47150391 4.97535156 -12.00550781 4.45070312 -11.52539062 3.91015625 C-7.77995735 -0.01363099 -5.32102343 -0.58458185 0 0 Z " fill="#EDEDED" transform="translate(496,143)"/>
<path d="M0 0 C0.33 0 0.66 0 1 0 C1 5.28 1 10.56 1 16 C1.66 16 2.32 16 3 16 C3 16.66 3 17.32 3 18 C1.68 18.33 0.36 18.66 -1 19 C-1.02714735 16.77090129 -1.04646254 14.54170633 -1.0625 12.3125 C-1.07990234 10.45044922 -1.07990234 10.45044922 -1.09765625 8.55078125 C-1.01478673 5.53764546 -0.70839449 2.91724661 0 0 Z " fill="#1F201F" transform="translate(590,675)"/>
<path d="M0 0 C3.33333333 1.66666667 6.66666667 3.33333333 10 5 C9.01 6.32 8.02 7.64 7 9 C2.97449681 7.6581656 2.11714364 5.5772427 0 2 C0 1.34 0 0.68 0 0 Z " fill="#1E1D1D" transform="translate(789,789)"/>
<path d="M0 0 C2.475 0.495 2.475 0.495 5 1 C4.67 5.29 4.34 9.58 4 14 C1.06540254 10.08720339 0.61003626 9.2725511 0.3125 4.75 C0.24675781 3.85796875 0.18101562 2.9659375 0.11328125 2.046875 C0.07589844 1.37140625 0.03851562 0.6959375 0 0 Z " fill="#2D2C2C" transform="translate(551,844)"/>
<path d="M0 0 C0.66 0.66 1.32 1.32 2 2 C0.02 5.96 -1.96 9.92 -4 14 C-4.66 13.67 -5.32 13.34 -6 13 C-4.75696561 7.82069003 -3.14512215 4.29833361 0 0 Z " fill="#100F10" transform="translate(934,43)"/>
<path d="M0 0 C0.33 0 0.66 0 1 0 C1.09928082 7.75493514 1.06059488 15.31068715 0 23 C-0.33 23 -0.66 23 -1 23 C-1.33 17.72 -1.66 12.44 -2 7 C-1.67 7 -1.34 7 -1 7 C-0.67 4.69 -0.34 2.38 0 0 Z " fill="#F1F1F1" transform="translate(553,899)"/>
<path d="M0 0 C0.33 0.99 0.66 1.98 1 3 C-0.26054802 5.4310569 -1.55258193 7.68920975 -3 10 C-3.7734375 11.3921875 -3.7734375 11.3921875 -4.5625 12.8125 C-6 15 -6 15 -9 17 C-7.68925635 12.53817564 -5.92933989 9.00381243 -3.375 5.125 C-2.74335938 4.15820312 -2.11171875 3.19140625 -1.4609375 2.1953125 C-0.73777344 1.10863281 -0.73777344 1.10863281 0 0 Z " fill="#D2D1D2" transform="translate(337,562)"/>
<path d="M0 0 C3.3 0.99 6.6 1.98 10 3 C8 5 8 5 5.375 5.125 C4.59125 5.08375 3.8075 5.0425 3 5 C2.67 5.99 2.34 6.98 2 8 C0.74335022 5.09399739 0 3.20395416 0 0 Z " fill="#1E1E1E" transform="translate(253,139)"/>
<path d="M0 0 C-1.44950455 3.7910119 -3.15172566 7.3874638 -5 11 C-5.33 11 -5.66 11 -6 11 C-6 8.03 -6 5.06 -6 2 C-2 0 -2 0 0 0 Z " fill="#2B2A2A" transform="translate(575,994)"/>
<path d="M0 0 C0.99 1.32 1.98 2.64 3 4 C1.68 6.31 0.36 8.62 -1 11 C-2.65 11 -4.3 11 -6 11 C-6.33 10.34 -6.66 9.68 -7 9 C-5.5459375 8.443125 -5.5459375 8.443125 -4.0625 7.875 C-0.68859031 6.28947638 -0.68859031 6.28947638 -0.125 2.8125 C-0.08375 1.884375 -0.0425 0.95625 0 0 Z " fill="#252525" transform="translate(484,195)"/>
<path d="M0 0 C0.66 0.99 1.32 1.98 2 3 C0 7 -2 11 -4 15 C-4.66 15 -5.32 15 -6 15 C-4.36041242 9.76727367 -2.61047965 4.84803364 0 0 Z " fill="#272727" transform="translate(368,566)"/>
<path d="M0 0 C0.33 0 0.66 0 1 0 C1 5.94 1 11.88 1 18 C0.67 17.01 0.34 16.02 0 15 C-0.66 15 -1.32 15 -2 15 C-2 13.02 -2 11.04 -2 9 C-1.67 9 -1.34 9 -1 9 C-0.67 6.03 -0.34 3.06 0 0 Z " fill="#151416" transform="translate(471,505)"/>
<path d="M0 0 C0.66 0.99 1.32 1.98 2 3 C-1.63 6.3 -5.26 9.6 -9 13 C-9.66 12.67 -10.32 12.34 -11 12 C-10.37351562 11.38511719 -9.74703125 10.77023437 -9.1015625 10.13671875 C-8.28429687 9.32847656 -7.46703125 8.52023437 -6.625 7.6875 C-5.40683594 6.48673828 -5.40683594 6.48673828 -4.1640625 5.26171875 C-1.87395158 2.99990063 -1.87395158 2.99990063 0 0 Z " fill="#E3E3E4" transform="translate(321,321)"/>
<path d="M0 0 C1.32 0.33 2.64 0.66 4 1 C-1.94 4.465 -1.94 4.465 -8 8 C-8.99 7.34 -9.98 6.68 -11 6 C-10.28972656 5.65066406 -9.57945312 5.30132812 -8.84765625 4.94140625 C-7.92855469 4.48636719 -7.00945313 4.03132813 -6.0625 3.5625 C-4.68771484 2.88380859 -4.68771484 2.88380859 -3.28515625 2.19140625 C-1.09471096 1.19474606 -1.09471096 1.19474606 0 0 Z " fill="#D2D2D3" transform="translate(661,476)"/>
<path d="M0 0 C0 0.66 0 1.32 0 2 C-1.98 2.33 -3.96 2.66 -6 3 C-6 3.66 -6 4.32 -6 5 C-5.01 5.33 -4.02 5.66 -3 6 C-5.64 5.67 -8.28 5.34 -11 5 C-11 4.34 -11 3.68 -11 3 C-9.54293274 2.49632243 -8.08429904 1.99717444 -6.625 1.5 C-5.81289063 1.2215625 -5.00078125 0.943125 -4.1640625 0.65625 C-2 0 -2 0 0 0 Z " fill="#3A3A3A" transform="translate(895,383)"/>
<path d="M0 0 C0 3.69349436 -0.88153908 5.00493457 -3 8 C-5.6875 10.3125 -5.6875 10.3125 -8 12 C-8.66 11.67 -9.32 11.34 -10 11 C-9.52949219 10.54109375 -9.05898438 10.0821875 -8.57421875 9.609375 C-3.96631602 5.08450705 -3.96631602 5.08450705 0 0 Z " fill="#E0DFE0" transform="translate(309,334)"/>
<path d="M0 0 C0.66 0.99 1.32 1.98 2 3 C0.35 5.31 -1.3 7.62 -3 10 C-3.99 9.67 -4.98 9.34 -6 9 C-4.02 6.03 -2.04 3.06 0 0 Z " fill="#272728" transform="translate(743,772)"/>
<path d="M0 0 C-2.25 2.5625 -2.25 2.5625 -5 5 C-7.3125 4.8125 -7.3125 4.8125 -9 4 C-9 3.34 -9 2.68 -9 2 C-3.375 -1.125 -3.375 -1.125 0 0 Z " fill="#232324" transform="translate(821,621)"/>
<path d="M0 0 C1 3 1 3 -0.4375 6.0625 C-0.953125 7.031875 -1.46875 8.00125 -2 9 C-2 9.66 -2 10.32 -2 11 C-3.32 11.33 -4.64 11.66 -6 12 C-4.43358249 7.69235185 -2.31663844 3.93828536 0 0 Z " fill="#2B2B2B" transform="translate(509,589)"/>
<path d="M0 0 C0 3.96 0 7.92 0 12 C-2.45823172 8.31265242 -3.01242616 5.30300029 -4 1 C-1 0 -1 0 0 0 Z " fill="#101010" transform="translate(847,299)"/>
<path d="M0 0 C0.58203125 1.84765625 0.58203125 1.84765625 1 4 C-0.3125 6.4375 -0.3125 6.4375 -2 9 C-2.69822617 10.65369357 -3.37498605 12.31727014 -4 14 C-4.66 14 -5.32 14 -6 14 C-4.50829734 9.0276578 -2.39542583 4.58154261 0 0 Z " fill="#333434" transform="translate(950,48)"/>
<path d="M0 0 C2.46800047 1.15173355 4.04783565 2.04783565 6 4 C1.25 6.875 1.25 6.875 -1 8 C-0.67 5.36 -0.34 2.72 0 0 Z " fill="#1C1C1C" transform="translate(335,612)"/>
<path d="M0 0 C-2.64 1.65 -5.28 3.3 -8 5 C-8.99 4.34 -9.98 3.68 -11 3 C-9.73581754 2.30034557 -8.46334598 1.61565237 -7.1875 0.9375 C-6.47980469 0.55464844 -5.77210938 0.17179688 -5.04296875 -0.22265625 C-3 -1 -3 -1 0 0 Z " fill="#1D1D1D" transform="translate(460,781)"/>
<path d="M0 0 C4.455 0.99 4.455 0.99 9 2 C9 2.33 9 2.66 9 3 C6.69 3 4.38 3 2 3 C2.33 5.31 2.66 7.62 3 10 C0.70366176 6.55549263 0.45983515 4.06187717 0 0 Z " fill="#373737" transform="translate(873,401)"/>
<path d="M0 0 C1.94158017 3.51624755 2.18311068 5.9715651 2 10 C1.01 10.495 1.01 10.495 0 11 C-1.26026798 8.47946405 -0.91874445 7.1457902 -0.5625 4.375 C-0.46066406 3.55773437 -0.35882812 2.74046875 -0.25390625 1.8984375 C-0.17011719 1.27195312 -0.08632813 0.64546875 0 0 Z " fill="#292A29" transform="translate(932,101)"/>
<path d="M0 0 C0.66 0.33 1.32 0.66 2 1 C1.09515208 2.15518918 0.1755794 3.29885406 -0.75 4.4375 C-1.26046875 5.07558594 -1.7709375 5.71367188 -2.296875 6.37109375 C-4.19667629 8.18810554 -5.43586908 8.60423197 -8 9 C-7.04270084 7.87411986 -6.08412105 6.7493285 -5.125 5.625 C-4.59132813 4.99851562 -4.05765625 4.37203125 -3.5078125 3.7265625 C-2.38567993 2.44163349 -1.20628025 1.20628025 0 0 Z " fill="#E9E8E9" transform="translate(562,521)"/>
<path d="M0 0 C0 0.66 0 1.32 0 2 C-0.66 2 -1.32 2 -2 2 C-1.67 3.65 -1.34 5.3 -1 7 C-1.99 7 -2.98 7 -4 7 C-4.33 5.02 -4.66 3.04 -5 1 C-2 0 -2 0 0 0 Z " fill="#313131" transform="translate(730,658)"/>
<path d="M0 0 C2.97 0.495 2.97 0.495 6 1 C5.67 1.66 5.34 2.32 5 3 C3.35 3 1.7 3 0 3 C0 3.66 0 4.32 0 5 C-0.99 4.67 -1.98 4.34 -3 4 C-2.01 2.68 -1.02 1.36 0 0 Z " fill="#EFEFEF" transform="translate(507,546)"/>
<path d="M0 0 C0.99 0 1.98 0 3 0 C3 2.64 3 5.28 3 8 C2.34 8 1.68 8 1 8 C-0.35439668 5.29120665 -0.06501451 2.99066732 0 0 Z " fill="#EDEDED" transform="translate(692,250)"/>
<path d="M0 0 C0.66 0.33 1.32 0.66 2 1 C0.25 3.0625 0.25 3.0625 -2 5 C-4.25 4.75 -4.25 4.75 -6 4 C-6.33 4.66 -6.66 5.32 -7 6 C-7.66 5.34 -8.32 4.68 -9 4 C-7.54618103 3.30300448 -6.08677047 2.61766134 -4.625 1.9375 C-3.40683594 1.36322266 -3.40683594 1.36322266 -2.1640625 0.77734375 C-1.44992187 0.52082031 -0.73578125 0.26429688 0 0 Z " fill="#313031" transform="translate(598,713)"/>
<path d="M0 0 C0.33 0.99 0.66 1.98 1 3 C-0.32 3.99 -1.64 4.98 -3 6 C-4.32 5.34 -5.64 4.68 -7 4 C-4.69 2.68 -2.38 1.36 0 0 Z " fill="#1C1D1C" transform="translate(565,550)"/>
<path d="M0 0 C0.66 0.33 1.32 0.66 2 1 C1.54625 1.5775 1.0925 2.155 0.625 2.75 C-0.84113516 4.7800333 -1.94857784 6.73539843 -3 9 C-3.33 7.02 -3.66 5.04 -4 3 C-2.68 2.01 -1.36 1.02 0 0 Z " fill="#2D2D2D" transform="translate(662,500)"/>
<path d="M0 0 C2.31 0.66 4.62 1.32 7 2 C6.0409375 2.433125 6.0409375 2.433125 5.0625 2.875 C2.84793921 3.82823451 2.84793921 3.82823451 2 6 C1.34 4.02 0.68 2.04 0 0 Z " fill="#424242" transform="translate(879,950)"/>
<path d="M0 0 C4.12751449 0.60698743 7.3321148 2.03810791 11 4 C8 5 8 5 4.375 3.6875 C1 2 1 2 0 0 Z " fill="#ECECEC" transform="translate(788,755)"/>
<path d="M0 0 C0.66 0.66 1.32 1.32 2 2 C2.99 2 3.98 2 5 2 C4.67 3.65 4.34 5.3 4 7 C3.01 6.67 2.02 6.34 1 6 C0.67 4.02 0.34 2.04 0 0 Z " fill="#4E4E4E" transform="translate(322,577)"/>
<path d="M0 0 C0.66 0.33 1.32 0.66 2 1 C-0.3125 3.5 -0.3125 3.5 -3 6 C-3.99 6 -4.98 6 -6 6 C-4 4 -2 2 0 0 Z " fill="#1E1D1E" transform="translate(527,573)"/>
<path d="M0 0 C1 2 1 2 0.0625 5.125 C-0.288125 6.07375 -0.63875 7.0225 -1 8 C-1.33 7.01 -1.66 6.02 -2 5 C-2.66 5 -3.32 5 -4 5 C-4 4.01 -4 3.02 -4 2 C-2.68 1.34 -1.36 0.68 0 0 Z " fill="#2B2A2B" transform="translate(818,414)"/>
<path d="M0 0 C0.66 0.66 1.32 1.32 2 2 C0.35 3.98 -1.3 5.96 -3 8 C-3.66 7.34 -4.32 6.68 -5 6 C-3.35 4.02 -1.7 2.04 0 0 Z " fill="#181818" transform="translate(391,301)"/>
<path d="M0 0 C1.32 0.66 2.64 1.32 4 2 C3.67 2.99 3.34 3.98 3 5 C2.01 5 1.02 5 0 5 C-0.33 5.99 -0.66 6.98 -1 8 C-0.67 5.36 -0.34 2.72 0 0 Z " fill="#3C3C3C" transform="translate(703,218)"/>
<path d="M0 0 C0.33 1.32 0.66 2.64 1 4 C-0.4375 6.25 -0.4375 6.25 -2 8 C-2.99 7.67 -3.98 7.34 -5 7 C-3.35 4.69 -1.7 2.38 0 0 Z " fill="#232323" transform="translate(780,725)"/>
<path d="M0 0 C1.61949011 2.57213134 2.04408751 3.67669159 1.625 6.75 C1.41875 7.4925 1.2125 8.235 1 9 C0.34 9 -0.32 9 -1 9 C-1.09765625 2.84765625 -1.09765625 2.84765625 -1 1 C-0.67 0.67 -0.34 0.34 0 0 Z " fill="#F4F4F4" transform="translate(879,300)"/>
<path d="M0 0 C1.65 0.33 3.3 0.66 5 1 C3.68 2.32 2.36 3.64 1 5 C0.34 4.67 -0.32 4.34 -1 4 C-0.67 2.68 -0.34 1.36 0 0 Z " fill="#111111" transform="translate(430,197)"/>
<path d="M0 0 C0.66 0 1.32 0 2 0 C1.25 4.75 1.25 4.75 -1 7 C-1.625 5.1875 -1.625 5.1875 -2 3 C-1.34 2.01 -0.68 1.02 0 0 Z " fill="#191919" transform="translate(559,1085)"/>
<path d="M0 0 C0.33 1.32 0.66 2.64 1 4 C-1.97 6.475 -1.97 6.475 -5 9 C-3.7508258 5.54074837 -2.32472205 2.85306797 0 0 Z " fill="#2F3030" transform="translate(736,782)"/>
<path d="M0 0 C-1.98 1.32 -3.96 2.64 -6 4 C-7.32 3.34 -8.64 2.68 -10 2 C-3.375 -1.125 -3.375 -1.125 0 0 Z " fill="#D7D7D8" transform="translate(521,728)"/>
<path d="M0 0 C1.32 0.33 2.64 0.66 4 1 C4 1.66 4 2.32 4 3 C2.35 3.66 0.7 4.32 -1 5 C-1 2 -1 2 0 0 Z " fill="#131313" transform="translate(684,647)"/>
<path d="M0 0 C1.98 1.65 3.96 3.3 6 5 C5.34 5.66 4.68 6.32 4 7 C2.35 5.02 0.7 3.04 -1 1 C-0.67 0.67 -0.34 0.34 0 0 Z " fill="#0A0A0A" transform="translate(741,501)"/>
<path d="M0 0 C0.66 0.33 1.32 0.66 2 1 C1.34 2.32 0.68 3.64 0 5 C-1.32 4.67 -2.64 4.34 -4 4 C-4 3.34 -4 2.68 -4 2 C-2.125 0.9375 -2.125 0.9375 0 0 Z " fill="#2D2D2D" transform="translate(717,467)"/>
<path d="M0 0 C2.29633824 3.44450737 2.54016485 5.93812283 3 10 C2.01 10 1.02 10 0 10 C0 6.7 0 3.4 0 0 Z " fill="#383738" transform="translate(595,408)"/>
<path d="M0 0 C0.66 0.33 1.32 0.66 2 1 C-0.97 3.475 -0.97 3.475 -4 6 C-4.99 5.34 -5.98 4.68 -7 4 C-1.7265625 0.77734375 -1.7265625 0.77734375 0 0 Z " fill="#D5D5D6" transform="translate(908,355)"/>
<path d="M0 0 C-0.33 0.99 -0.66 1.98 -1 3 C-4.0625 4.1875 -4.0625 4.1875 -7 5 C-7.66 4.34 -8.32 3.68 -9 3 C-2.25 0 -2.25 0 0 0 Z " fill="#E0E0E0" transform="translate(933,344)"/>
<path d="M0 0 C1.32 0.66 2.64 1.32 4 2 C3.01 2.99 2.02 3.98 1 5 C0.01 4.67 -0.98 4.34 -2 4 C-1.34 2.68 -0.68 1.36 0 0 Z " fill="#E2E2E4" transform="translate(573,286)"/>
</svg>
