<?xml version="1.0" encoding="UTF-8"?>
<svg version="1.1" xmlns="http://www.w3.org/2000/svg" width="512" height="512">
<path d="M0 0 C2.16645352 2.00021531 4.24586709 4.06087411 6.30982089 6.16669786 C7.10240719 6.95501204 7.89499349 7.74332621 8.71159756 8.5555287 C11.34589495 11.18163617 13.96200124 13.82512507 16.57846713 16.46898973 C18.47047837 18.36241229 20.36345833 20.25481759 22.25769687 22.14600694 C26.32438828 26.21008547 30.3818753 30.28316671 34.43313098 34.36263025 C40.29045377 40.26070929 46.16164959 46.14481846 52.03624682 52.02568605 C61.56860147 61.5689649 71.08975293 71.1233396 80.60385776 80.68481004 C89.84211342 89.96900988 99.0856425 99.24790708 108.33627963 108.51977098 C108.90715555 109.09196051 109.47803146 109.66415005 110.06620665 110.25367866 C112.93035572 113.12435325 115.79460842 115.99492441 118.65891266 118.86544418 C142.39476744 142.6530736 166.11243754 166.45875779 189.81821322 190.27636278 C192.82876365 188.92639526 194.91465226 187.42682182 197.23694777 185.09255064 C197.89772344 184.43329027 198.55849911 183.7740299 199.23929828 183.09479195 C199.95689707 182.368639 200.67449585 181.64248606 201.41384006 180.89432847 C202.18269906 180.12435606 202.95155806 179.35438364 203.74371582 178.56107873 C206.32694003 175.9717674 208.90294302 173.37538777 211.4791019 170.77904832 C213.32667608 168.92436382 215.17472012 167.07014727 217.0231998 165.21636522 C221.00783509 161.21913119 224.98900784 157.21847552 228.96807551 153.21569955 C234.72892097 147.42089301 240.49719138 141.63352156 246.26768915 135.84832845 C255.63993067 126.45218891 265.00916468 117.05305782 274.37509799 107.65063035 C274.93570138 107.08784672 275.49630477 106.52506308 276.07389615 105.9452254 C284.02342704 97.96449654 291.96995513 89.98078443 299.91526864 81.99585716 C300.47435607 81.43398309 301.03344351 80.87210903 301.60947299 80.29320848 C302.16787563 79.73201878 302.72627827 79.17082908 303.30160221 78.59263363 C312.62273802 69.22537865 321.95162682 59.86588926 331.28686959 50.51269311 C337.04157228 44.74630155 342.78968436 38.97349278 348.52941731 33.1921998 C352.93257906 28.75830226 357.34612069 24.33487302 361.7635448 19.91518724 C363.5709842 18.10345803 365.37498542 16.28829116 367.17524409 14.46942651 C369.63686127 11.9833614 372.11060587 9.51001061 374.58766818 7.03934801 C375.29411336 6.31988723 376.00055853 5.60042644 376.72841114 4.85916382 C384.07865321 -2.41765599 391.39668054 -6.82133829 401.88071322 -7.09863722 C403.12981479 -7.1476216 404.37891635 -7.19660597 405.66586947 -7.24707472 C415.89225039 -6.55027234 422.98397015 0.69215576 429.75229526 7.66845262 C431.19803919 9.15632938 432.66425905 10.62144181 434.13461947 12.08495653 C442.21184604 20.21574515 446.91515379 26.34282576 447.06821322 38.02636278 C446.82053043 56.46920447 430.82352813 67.41104 418.57749057 79.61474168 C416.941998 81.24831219 415.30673509 82.88211266 413.67168307 84.51612413 C410.16685029 88.01780994 406.66047349 91.51793951 403.15288043 95.01686037 C397.60265433 100.55350414 392.05629806 106.09401378 386.51050448 111.63509691 C378.73306257 119.405367 370.95408529 127.17409702 363.17368197 134.94140184 C362.4349215 135.67892059 362.4349215 135.67892059 361.68123658 136.43133871 C358.18527835 139.92139637 354.68925298 143.41138678 351.19321322 146.90136278 C347.1960954 150.89154956 343.19900967 154.88176848 339.20200229 158.8720659 C338.70949636 159.3637437 338.21699043 159.8554215 337.70956008 160.36199863 C329.48435498 168.57349646 321.26115081 176.78699517 313.03930318 185.00185466 C307.52983945 190.50634634 302.01794908 196.00839289 296.50416803 201.50855982 C293.07265843 204.93259477 289.64323564 208.35871401 286.21436763 211.78539407 C284.62820657 213.36968795 283.04118369 214.95311955 281.45322108 216.5356077 C279.27960936 218.7019633 277.10914779 220.87142894 274.93939853 223.04165208 C274.00450943 223.97114874 274.00450943 223.97114874 273.05073369 224.9194231 C269.32548881 228.65334391 265.79682686 232.51027516 262.35706306 236.50903904 C260.22024401 238.96311282 257.95933342 241.27747795 255.66831088 243.58739793 C255.20382037 244.05685335 254.73932986 244.52630876 254.26076388 245.0099901 C252.75395573 246.53116438 251.24349613 248.04863506 249.73227572 249.56542528 C249.20933303 250.09119535 248.68639033 250.61696542 248.14760089 251.15866792 C245.38423788 253.936913 242.61809688 256.71235476 239.84946322 259.48534715 C237.01305131 262.32725225 234.18605107 265.17833033 231.36113048 268.03165185 C229.16470954 270.24680787 226.96150059 272.45511931 224.75645709 274.66168916 C223.71190879 275.70923595 222.66982731 276.75924925 221.63042712 277.81190431 C213.01642753 286.52794575 204.25736663 295.25760527 191.54477572 296.30761278 C179.20905305 296.16622914 171.53376952 288.28817698 163.36740756 280.09298265 C162.41409422 279.14340892 161.46035008 278.19426753 160.50621438 277.24552011 C157.89308011 274.6445929 155.28619891 272.03747688 152.68034315 269.42926013 C149.8658635 266.61437173 147.04566704 263.80522058 144.2262485 260.99528062 C138.70608258 255.49171332 133.19147146 249.98261262 127.67904127 244.47129814 C123.19696309 239.99017102 118.71330737 235.51062847 114.22853732 231.03219545 C101.5068277 218.32809547 88.78931647 205.61981395 76.07715875 192.90615593 C75.39213153 192.2210488 74.70710431 191.53594167 74.00131869 190.83007371 C73.31545355 190.14412681 72.62958841 189.45817991 71.92293948 188.75144674 C60.80986143 177.63755597 49.68684344 166.53367293 38.5592677 155.43429945 C27.12705035 144.03082754 15.70232527 132.61989639 4.28533483 121.20117903 C-2.1219136 114.79326726 -8.53219221 108.38845673 -14.95053983 101.99166048 C-20.41568877 96.54474517 -25.87382302 91.09091845 -31.32307947 85.62810199 C-34.10157314 82.84308963 -36.88314324 80.06135171 -39.67358327 77.28830469 C-42.23225455 74.74541771 -44.78137068 72.19332973 -47.32345527 69.63386442 C-48.67207428 68.28074803 -50.03046872 66.93739586 -51.38928199 65.59451699 C-59.35288888 57.5408067 -65.24999888 49.81280527 -65.55678678 38.21386278 C-65.60577115 36.96476121 -65.65475553 35.71565965 -65.70522428 34.42870653 C-64.97776848 23.92765327 -57.39469748 16.772797 -50.25258756 9.86010301 C-48.67207222 8.32945472 -47.11145379 6.780491 -45.55288053 5.22753465 C-32.01159264 -8.12469441 -16.2541044 -12.84093372 0 0 Z " fill="#000000" transform="translate(65.18178677558899,111.72363722324371)"/>
</svg>
