<?xml version="1.0" encoding="UTF-8"?>
<svg version="1.1" xmlns="http://www.w3.org/2000/svg" width="512" height="512">
<path d="M0 0 C4.05915099 2.14972636 7.48697425 5.06958254 11 8 C12.32877434 9.08803724 13.65824544 10.17522392 14.98828125 11.26171875 C17.91273882 13.65846974 20.82598178 16.06816645 23.734375 18.484375 C27.46353972 21.57253737 31.24294886 24.58721862 35.0625 27.5625 C40.09203754 31.48159199 45.06055592 35.46793345 50 39.5 C55.06544254 43.63442054 60.16139979 47.72278914 65.3125 51.75 C67.00081603 53.07457217 68.68857853 54.39984456 70.37597656 55.72558594 C71.45739532 56.57420378 72.54007707 57.42121465 73.62402344 58.26660156 C75.1515216 59.46134012 76.6697166 60.66794391 78.1875 61.875 C79.04730469 62.55304688 79.90710938 63.23109375 80.79296875 63.9296875 C83.98566638 66.9246074 85.78996843 69.58978806 86.4375 73.9375 C85.38962944 81.27259395 79.59346128 85.34014944 74.125 89.6875 C73.36904541 90.29907959 72.61309082 90.91065918 71.83422852 91.54077148 C66.67405795 95.70286428 61.46881058 99.80909395 56.24072266 103.88549805 C51.77997514 107.36676253 47.38334431 110.92192024 43 114.5 C37.48352389 119.00207323 31.92443477 123.4406745 26.30883789 127.81835938 C23.09178504 130.33361828 19.9061639 132.88213985 16.74609375 135.46875 C16.02873047 136.05591797 15.31136719 136.64308594 14.57226562 137.24804688 C13.18441962 138.38702022 11.79886926 139.52879859 10.41601562 140.67382812 C4.77243382 145.30696192 0.68967986 148.60183986 -6.84375 148.36328125 C-10.0640318 147.82073377 -11.79950371 146.3380273 -14 144 C-15.18695418 141.62609164 -15.12075833 140.19755049 -15.11352539 137.55029297 C-15.11344986 136.62948944 -15.11337433 135.70868591 -15.11329651 134.75997925 C-15.10813522 133.76410797 -15.10297394 132.76823669 -15.09765625 131.7421875 C-15.09553383 130.21490524 -15.09553383 130.21490524 -15.09336853 128.6567688 C-15.087759 125.39614965 -15.07520488 122.13559849 -15.0625 118.875 C-15.05748623 116.66796974 -15.05292311 114.46093841 -15.04882812 112.25390625 C-15.03778648 106.83591419 -15.02103905 101.41796195 -15 96 C-35.56791455 96.03728903 -56.13565316 96.09732848 -76.70342159 96.18390274 C-86.25500174 96.22358624 -95.80650078 96.25603274 -105.3581543 96.27099609 C-113.69060389 96.28406833 -122.02287419 96.31117376 -130.35522276 96.35461307 C-134.76061483 96.3771035 -139.16578681 96.39291822 -143.57124138 96.39188385 C-147.73201032 96.39112981 -151.89229506 96.40937382 -156.05293846 96.44116783 C-157.56641677 96.44957042 -159.07995003 96.45148383 -160.59344101 96.44580269 C-174.38352657 96.40100148 -188.27721932 98.37152366 -200.75 104.625 C-201.44552979 104.96490967 -202.14105957 105.30481934 -202.85766602 105.6550293 C-223.5178848 116.15914191 -237.5878138 134.24074126 -245 156 C-250.93911787 175.13449669 -249.04620855 195.42601553 -241.75 213.875 C-239.15238169 220.66797804 -238.58709984 227.53734639 -241.5625 234.3125 C-244.89115134 240.06091562 -249.72242367 243.91690035 -256 246 C-263.98485547 247.16522468 -270.41265307 245.64707384 -277 241 C-290.88076734 226.80376067 -293.29010113 198.32571291 -293.24438477 179.42895508 C-292.70079329 144.1381441 -278.54565473 112.92863657 -254 88 C-253.18402344 87.15953125 -252.36804688 86.3190625 -251.52734375 85.453125 C-238.93174874 73.22741609 -223.43386783 64.8382358 -207 59 C-205.41058594 58.40445313 -205.41058594 58.40445313 -203.7890625 57.796875 C-182.96679284 50.62416514 -160.66936715 51.58522277 -138.9659307 51.69581819 C-134.59382301 51.71482582 -130.22170623 51.71635408 -125.8495636 51.71989441 C-117.60536727 51.72914525 -109.36129313 51.75366263 -101.11715013 51.78394288 C-91.71661749 51.81770634 -82.31607841 51.83402754 -72.91550004 51.84902918 C-53.61026461 51.8802201 -34.3051422 51.93284202 -15 52 C-15.00888245 51.43481155 -15.01776489 50.86962311 -15.0269165 50.28730774 C-15.11548897 44.39875412 -15.17577513 38.51039008 -15.21972656 32.62133789 C-15.23982767 30.42431958 -15.26711306 28.22735468 -15.30175781 26.03051758 C-15.35034093 22.87047134 -15.37298405 19.71113313 -15.390625 16.55078125 C-15.41127014 15.57039383 -15.43191528 14.59000641 -15.45318604 13.57991028 C-15.45462603 9.19222178 -15.43575222 6.71047776 -13.10058594 2.90307617 C-9.16214244 -0.6650511 -5.117589 -1.00812655 0 0 Z " fill="#000000" transform="translate(335,54)"/>
<path d="M0 0 C9.57713718 5.49854563 12.61056043 15.8603559 15.625 25.9375 C24.6844977 60.64479583 21.61960097 96.56918538 3.72265625 128.09521484 C-13.98999102 157.82378164 -42.46651203 179.32414033 -75.81664467 188.29073143 C-94.65700354 193.0536945 -114.13307624 192.33990757 -133.4090693 192.24168181 C-137.78117699 192.22267418 -142.15329377 192.22114592 -146.5254364 192.21760559 C-154.76963273 192.20835475 -163.01370687 192.18383737 -171.25784987 192.15355712 C-180.65838251 192.11979366 -190.05892159 192.10347246 -199.45949996 192.08847082 C-218.76473539 192.0572799 -238.0698578 192.00465798 -257.375 191.9375 C-257.36611755 192.50268845 -257.35723511 193.06787689 -257.3480835 193.65019226 C-257.25951103 199.53874588 -257.19922487 205.42710992 -257.15527344 211.31616211 C-257.13517233 213.51318042 -257.10788694 215.71014532 -257.07324219 217.90698242 C-257.02465907 221.06702866 -257.00201595 224.22636687 -256.984375 227.38671875 C-256.96372986 228.36710617 -256.94308472 229.34749359 -256.92181396 230.35758972 C-256.92037397 234.74527822 -256.93924778 237.22702224 -259.27441406 241.03442383 C-262.57591069 244.02549382 -265.28846204 244.54169967 -269.77734375 244.44921875 C-275.24494688 243.37214204 -279.19853178 239.4213331 -283.375 235.9375 C-284.70377434 234.84946276 -286.03324544 233.76227608 -287.36328125 232.67578125 C-290.28773882 230.27903026 -293.20098178 227.86933355 -296.109375 225.453125 C-299.83853972 222.36496263 -303.61794886 219.35028138 -307.4375 216.375 C-312.46703754 212.45590801 -317.43555592 208.46956655 -322.375 204.4375 C-327.44044254 200.30307946 -332.53639979 196.21471086 -337.6875 192.1875 C-339.37581603 190.86292783 -341.06357853 189.53765544 -342.75097656 188.21191406 C-343.83239532 187.36329622 -344.91507707 186.51628535 -345.99902344 185.67089844 C-347.5265216 184.47615988 -349.0447166 183.26955609 -350.5625 182.0625 C-351.85220703 181.04542969 -351.85220703 181.04542969 -353.16796875 180.0078125 C-356.36066638 177.0128926 -358.16496843 174.34771194 -358.8125 170 C-357.76462944 162.66490605 -351.96846128 158.59735056 -346.5 154.25 C-345.74404541 153.63842041 -344.98809082 153.02684082 -344.20922852 152.39672852 C-339.04905795 148.23463572 -333.84381058 144.12840605 -328.61572266 140.05200195 C-324.15497514 136.57073747 -319.75834431 133.01557976 -315.375 129.4375 C-309.85852389 124.93542677 -304.29943477 120.4968255 -298.68383789 116.11914062 C-295.46678504 113.60388172 -292.2811639 111.05536015 -289.12109375 108.46875 C-288.40373047 107.88158203 -287.68636719 107.29441406 -286.94726562 106.68945312 C-285.55941962 105.55047978 -284.17386926 104.40870141 -282.79101562 103.26367188 C-277.14743382 98.63053808 -273.06467986 95.33566014 -265.53125 95.57421875 C-262.3109682 96.11676623 -260.57549629 97.5994727 -258.375 99.9375 C-257.18804582 102.31140836 -257.25424167 103.73994951 -257.26147461 106.38720703 C-257.26158791 107.76841232 -257.26158791 107.76841232 -257.26170349 109.17752075 C-257.26686478 110.17339203 -257.27202606 111.16926331 -257.27734375 112.1953125 C-257.2787587 113.21350067 -257.28017365 114.23168884 -257.28163147 115.2807312 C-257.287241 118.54135035 -257.29979512 121.80190151 -257.3125 125.0625 C-257.31751377 127.26953026 -257.32207689 129.47656159 -257.32617188 131.68359375 C-257.33721352 137.10158581 -257.35396095 142.51953805 -257.375 147.9375 C-236.80708545 147.90021097 -216.23934684 147.84017152 -195.67157841 147.75359726 C-186.11999826 147.71391376 -176.56849922 147.68146726 -167.0168457 147.66650391 C-158.68439611 147.65343167 -150.35212581 147.62632624 -142.01977724 147.58288693 C-137.61438517 147.5603965 -133.20921319 147.54458178 -128.80375862 147.54561615 C-124.64298968 147.54637019 -120.48270494 147.52812618 -116.32206154 147.49633217 C-114.80858323 147.48792958 -113.29504997 147.48601617 -111.78155899 147.49169731 C-97.99147343 147.53649852 -84.09778068 145.56597634 -71.625 139.3125 C-70.92947021 138.97259033 -70.23394043 138.63268066 -69.51733398 138.2824707 C-48.8571152 127.77835809 -34.7871862 109.69675874 -27.375 87.9375 C-21.43588213 68.80300331 -23.32879145 48.51148447 -30.625 30.0625 C-33.22261831 23.26952196 -33.78790016 16.40015361 -30.8125 9.625 C-24.27505987 -1.66483455 -11.82242399 -5.37222256 0 0 Z " fill="#000000" transform="translate(449.375,214.0625)"/>
</svg>
