<?xml version="1.0" encoding="UTF-8"?>
<svg version="1.1" xmlns="http://www.w3.org/2000/svg" width="512" height="512">
<path d="M0 0 C1.32588638 -0.00287018 1.32588638 -0.00287018 2.67855835 -0.00579834 C4.53912645 -0.0071509 6.39970429 -0.00351988 8.26025391 0.00488281 C11.05784189 0.01551819 13.85477642 0.00499552 16.65234375 -0.0078125 C30.09422188 -0.01981857 43.51811849 0.3138484 56.3359375 4.828125 C57.07859863 5.08352051 57.82125977 5.33891602 58.58642578 5.60205078 C71.48666117 10.24177641 83.35634597 17.29509279 94.4609375 25.265625 C95.16476563 25.76723145 95.86859375 26.26883789 96.59375 26.78564453 C106.76999409 34.06684928 116.50982515 41.65557495 125.90283203 49.91796875 C128.35018852 52.03476722 130.87596427 54.05193212 133.3984375 56.078125 C137.04847702 59.03977987 140.42722995 62.10013097 143.68286133 65.48681641 C145.44032789 67.2450069 147.25937228 68.86846064 149.14453125 70.48828125 C153.47301827 74.25045665 157.66638335 78.14129903 161.8359375 82.078125 C162.57835693 82.77736084 163.32077637 83.47659668 164.08569336 84.19702148 C168.84721908 88.69681649 173.52649176 93.25565727 178.08984375 97.95703125 C180.03891344 99.85472514 182.0184105 101.61871883 184.08203125 103.38671875 C190.27615805 108.76178746 195.92968385 114.69088134 201.68359375 120.52734375 C206.16413747 125.04701886 210.68445754 129.40573772 215.51757812 133.54492188 C219.92911848 137.45101941 223.97878066 141.7473633 228.10546875 145.94921875 C232.15549661 150.04367104 236.28242429 153.95691169 240.66796875 157.69140625 C242.5141915 159.31238178 244.24140888 161.0115563 245.9609375 162.765625 C249.62385828 166.4777125 253.50285659 169.87298422 257.4609375 173.265625 C258.4925005 174.16109789 259.52372468 175.05696119 260.5546875 175.953125 C287.93186807 201.81431074 287.93186807 201.81431074 321.9765625 213.36328125 C323.22695313 213.36005859 324.47734375 213.35683594 325.765625 213.35351562 C327.06757813 213.34513672 328.36953125 213.33675781 329.7109375 213.328125 C331.02835937 213.32361328 332.34578125 213.31910156 333.703125 213.31445312 C336.95577491 213.30266816 340.20833334 213.28621511 343.4609375 213.265625 C342.92202881 212.73195313 342.38312012 212.19828125 341.82788086 211.6484375 C339.34867514 209.19023074 336.87354151 206.72796134 334.3984375 204.265625 C333.55087891 203.42644531 332.70332031 202.58726562 331.83007812 201.72265625 C326.82436125 196.73626647 322.04224479 191.64324736 317.4609375 186.265625 C316.97898926 185.72397705 316.49704102 185.1823291 316.00048828 184.62426758 C311.16852719 179.09866093 309.91849164 174.40422638 310.09375 167.1796875 C310.84790217 161.19460748 313.09002641 156.30851161 317.69140625 152.34375 C324.2533236 147.84781968 329.5511663 146.45027978 337.4609375 147.265625 C348.09330791 150.21135527 355.69353057 159.79391393 363.171875 167.34765625 C364.67177411 168.8467255 366.17249015 170.34497777 367.67398071 171.842453 C370.8068099 174.97243417 373.93073647 178.11095834 377.04833984 181.25610352 C381.03423457 185.27612231 385.03991326 189.2757165 389.05223656 193.26933765 C392.1498576 196.35636588 395.23761789 199.45310706 398.32243729 202.5529232 C399.79556629 204.03121465 401.27150365 205.50671328 402.75034714 206.9792881 C404.81796949 209.04142922 406.87215052 211.11610895 408.92333984 213.19458008 C409.83197784 214.09342926 409.83197784 214.09342926 410.75897217 215.01043701 C416.32681068 220.70406835 420.03354151 226.60158565 420.0234375 234.765625 C420.04535156 235.8071875 420.06726563 236.84875 420.08984375 237.921875 C418.65143827 245.56954637 413.01984177 251.14764293 407.65454102 256.46020508 C406.6584079 257.46422363 406.6584079 257.46422363 405.64215088 258.48852539 C403.46548505 260.67829467 401.2781499 262.8570242 399.08984375 265.03515625 C397.56392823 266.56309479 396.0384581 268.09147825 394.51341248 269.62028503 C391.32490988 272.81319751 388.13107731 276.00065356 384.93334961 279.18432617 C380.83987379 283.26068216 376.76005334 287.35039842 372.6841135 291.44427967 C369.54024171 294.59900043 366.38924924 297.74653073 363.23606682 300.89194298 C361.72880929 302.3972031 360.22376649 303.90468435 358.72101021 305.41443825 C356.62009925 307.52298486 354.50978111 309.62164799 352.39672852 311.71801758 C351.78095444 312.33986435 351.16518036 312.96171112 350.53074646 313.60240173 C345.00966984 319.04317318 339.83639874 321.75777846 332.0546875 322.33203125 C326.68324371 322.19450935 322.32561493 320.32510081 317.7109375 317.703125 C312.4030116 311.95287194 309.90801503 305.67643915 309.89453125 297.8828125 C311.99680228 288.16887051 319.0084785 282.2141698 325.8359375 275.578125 C326.87587027 274.54970739 327.91493971 273.52041603 328.953125 272.49023438 C333.635802 267.86982776 338.367527 263.42934538 343.4609375 259.265625 C342.65575684 259.25104248 341.85057617 259.23645996 341.02099609 259.22143555 C337.96025857 259.15944981 334.90010641 259.08514515 331.83984375 259.00317383 C329.89343604 258.95456106 327.94670559 258.91945743 326 258.88476562 C288.97417034 257.84577551 259.95073695 235.13546559 233.4609375 211.265625 C232.51476562 210.41871094 231.56859375 209.57179688 230.59375 208.69921875 C229.02586963 207.29098578 227.46121486 205.879137 225.90234375 204.4609375 C223.85193147 202.61720677 221.78114791 200.80388354 219.69921875 198.99609375 C215.40341942 195.24346448 211.2330522 191.36876401 207.0859375 187.453125 C206.34351807 186.75388916 205.60109863 186.05465332 204.83618164 185.33422852 C200.07465592 180.83443351 195.39538324 176.27559273 190.83203125 171.57421875 C188.88296156 169.67652486 186.9034645 167.91253117 184.83984375 166.14453125 C178.64571695 160.76946254 172.99219115 154.84036866 167.23828125 149.00390625 C162.75773753 144.48423114 158.23741746 140.12551228 153.40429688 135.98632812 C148.99275652 132.08023059 144.94309434 127.7838867 140.81640625 123.58203125 C136.76637839 119.48757896 132.63945071 115.57433831 128.25390625 111.83984375 C126.40768027 110.21886539 124.68033084 108.51983432 122.9609375 106.765625 C119.97221413 103.72967575 116.84387271 100.92053841 113.6171875 98.140625 C111.26130792 96.09203406 108.9558629 93.99359498 106.6484375 91.890625 C101.39887196 87.15963357 95.96137372 82.70008521 90.4609375 78.265625 C89.32744732 77.32894447 88.19466622 76.39140537 87.0625 75.453125 C68.71074058 60.35247576 48.76533439 44.96838953 24.12109375 44.9921875 C21.90168763 44.97190252 19.68228662 44.95105182 17.46289062 44.9296875 C13.98929505 44.90709181 10.51590205 44.89061232 7.04223633 44.88476562 C3.67232332 44.8752171 0.30330509 44.84141862 -3.06640625 44.8046875 C-4.6120652 44.81225571 -4.6120652 44.81225571 -6.18894958 44.81997681 C-13.68507357 44.71830069 -19.16121239 43.28425263 -24.81640625 38.23046875 C-25.63818359 37.22693359 -25.63818359 37.22693359 -26.4765625 36.203125 C-27.32541016 35.19572266 -27.32541016 35.19572266 -28.19140625 34.16796875 C-31.84357616 29.01258688 -31.0310585 22.28366308 -30.5390625 16.265625 C-29.0691379 10.46082721 -25.68370363 7.06173105 -21.02734375 3.4921875 C-14.44141169 0.24574689 -7.21819808 -0.03541312 0 0 Z " fill="#000000" transform="translate(61.5390625,126.734375)"/>
<path d="M0 0 C2.52929174 2.14411977 4.86243416 4.451099 7.19458008 6.80639648 C7.86392578 7.47048523 8.53327148 8.13457397 9.22290039 8.81878662 C11.41266967 10.99545245 13.5913992 13.1827876 15.76953125 15.37109375 C17.29746979 16.89700927 18.82585325 18.4224794 20.35466003 19.94752502 C23.54757251 23.13602762 26.73502856 26.32986019 29.91870117 29.52758789 C33.99505716 33.62106371 38.08477342 37.70088416 42.17865467 41.776824 C45.33337543 44.92069579 48.48090573 48.07168826 51.62631798 51.22487068 C53.1315781 52.73212821 54.63905935 54.23717101 56.14881325 55.73992729 C58.25735986 57.84083825 60.35602299 59.95115639 62.45239258 62.06420898 C63.38516273 62.9878701 63.38516273 62.9878701 64.33677673 63.93019104 C69.51201892 69.18181923 72.42831124 73.78508605 72.4375 81.375 C72.45683594 82.43460937 72.47617187 83.49421875 72.49609375 84.5859375 C71.35385017 92.44673192 66.83916622 97.75044651 61.33886719 103.17871094 C60.67813705 103.84645035 60.01740692 104.51418976 59.33665466 105.2021637 C57.16662762 107.38968449 54.98242933 109.56237577 52.796875 111.734375 C51.2741752 113.25977216 49.75206936 114.78576244 48.23052979 116.31231689 C45.04605173 119.50267839 41.85448703 122.68572839 38.65771484 125.86376953 C34.57102684 129.9276695 30.50256092 134.00926459 26.43925095 138.09652328 C23.30141764 141.24884536 20.15407637 144.39153557 17.00382233 147.53144073 C15.50026485 149.03233947 13.99964653 150.53618879 12.50209808 152.04308319 C10.40386023 154.15153667 8.29312301 156.24665015 6.17871094 158.33886719 C5.56855637 158.95711868 4.95840179 159.57537018 4.32975769 160.21235657 C-1.39122702 165.82318522 -7.2790242 169.57267448 -15.5 169.5625 C-22.51545738 169.32702747 -26.58165077 167.34822925 -31.5234375 162.5078125 C-36.49491728 156.96159517 -37.41603379 151.92165237 -37.2421875 144.70703125 C-36.2937399 134.10583466 -27.18407761 127.11073467 -20.06201172 120.08056641 C-16.75174632 116.80003051 -13.6323959 113.41651241 -10.6328125 109.8515625 C-8.52468366 107.46100492 -6.26847176 105.23771282 -4 103 C-8.43727178 102.88243242 -12.87413528 102.81229284 -17.3125 102.75 C-19.17745117 102.69972656 -19.17745117 102.69972656 -21.08007812 102.6484375 C-49.98951584 102.34492634 -73.5522554 127.99069541 -93.55859375 146.34765625 C-110.26768634 161.58166913 -110.26768634 161.58166913 -122.21875 161.30859375 C-128.23853379 160.6406683 -132.32119097 158.03046475 -136.375 153.625 C-140.46273698 148.37092502 -141.57888961 143.208909 -141.34375 136.625 C-139.86438202 125.32800813 -130.8797496 118.68036029 -122.81689453 111.59960938 C-120.4289559 109.49724793 -118.09349993 107.33915644 -115.75 105.1875 C-111.17748127 101.10809603 -106.49495354 97.18362313 -101.70507812 93.36181641 C-100.46666604 92.3727181 -99.23139668 91.37968088 -97.99804688 90.38427734 C-74.27081041 71.27541611 -52.25466467 58.73953611 -21.25 58.3125 C-19.57028719 58.2792496 -17.89059857 58.24475312 -16.2109375 58.20898438 C-12.14076073 58.12497731 -8.07063036 58.05775981 -4 58 C-4.89307861 57.12786865 -5.78615723 56.2557373 -6.70629883 55.35717773 C-10.0319747 52.10416079 -13.34418308 48.83771152 -16.65258789 45.56713867 C-18.0835449 44.15623803 -19.51807919 42.74895564 -20.95629883 41.34545898 C-23.02867265 39.32186378 -25.08762988 37.28539992 -27.14453125 35.24609375 C-27.78526077 34.62600937 -28.4259903 34.00592499 -29.08613586 33.36705017 C-33.57930495 28.87614208 -36.42125202 24.81292787 -37.3984375 18.375 C-37.31512171 9.93233307 -34.99940728 4.13892838 -29 -2 C-18.77505477 -8.17757108 -9.38507131 -6.64273919 0 0 Z " fill="#000000" transform="translate(409,69)"/>
<path d="M0 0 C5.10610101 4.02038269 7.58024943 8.03517845 8.390625 14.47265625 C8.76446455 21.95903278 7.49930272 27.62864384 3.04296875 33.7109375 C-0.06506462 37.00903046 -3.43507532 39.86531734 -6.95703125 42.7109375 C-7.87355469 43.46375 -8.79007813 44.2165625 -9.734375 44.9921875 C-11.4897444 46.42996552 -13.25188721 47.85955077 -15.0234375 49.27734375 C-17.4758688 51.3117841 -19.84190648 53.39776249 -22.20703125 55.53125 C-48.62280604 79.10608815 -80.37860259 98.96603432 -116.71484375 99.046875 C-118.31850296 99.0568602 -118.31850296 99.0568602 -119.95455933 99.06704712 C-122.19478657 99.07709041 -124.43504323 99.08186675 -126.67529297 99.08154297 C-130.08090508 99.08593605 -133.48523948 99.12240036 -136.890625 99.16015625 C-139.08202688 99.16602241 -141.27343483 99.16999315 -143.46484375 99.171875 C-144.97149094 99.19343155 -144.97149094 99.19343155 -146.50857544 99.21542358 C-153.8883089 99.16819836 -161.22815652 98.0623023 -166.90432739 92.96078491 C-172.4989231 86.88105081 -173.47359519 81.06321007 -173.3359375 72.94140625 C-172.61520758 66.79662646 -169.48210328 62.90994785 -165.01953125 58.8359375 C-158.55260658 54.34868365 -152.49420189 54.43008191 -144.890625 54.4375 C-142.69075025 54.41719738 -140.4908805 54.39634635 -138.29101562 54.375 C-134.85078707 54.35250366 -131.41075747 54.33596527 -127.97045898 54.33007812 C-110.0338567 54.5325156 -110.0338567 54.5325156 -92.95703125 49.7109375 C-92.1693335 49.36256836 -91.38163574 49.01419922 -90.57006836 48.65527344 C-88.38998639 47.61013692 -86.30230653 46.47881989 -84.20703125 45.2734375 C-83.45607178 44.84877197 -82.7051123 44.42410645 -81.93139648 43.98657227 C-73.36193859 38.9952546 -65.65143819 32.93733259 -57.95703125 26.7109375 C-56.90536982 25.87316802 -55.85332364 25.03588116 -54.80078125 24.19921875 C-47.90650338 18.65087434 -41.35599044 12.74534206 -34.8359375 6.765625 C-24.33884556 -2.68789639 -13.2105184 -8.70153906 0 0 Z " fill="#000000" transform="translate(203.95703125,286.2890625)"/>
</svg>
