<?xml version="1.0" encoding="UTF-8"?>
<svg version="1.1" xmlns="http://www.w3.org/2000/svg" width="512" height="512">
<path d="M0 0 C2.05035899 1.43128984 4.09589267 2.86915334 6.13916016 4.31054688 C9.4697819 6.65111252 12.82973876 8.94862693 16.1875 11.25 C17.53008089 12.17298369 18.87252894 13.09616064 20.21484375 14.01953125 C22.78917457 15.78950133 25.36472191 17.55767685 27.94140625 19.32421875 C35.75456127 24.68377249 43.53997139 30.08168193 51.3125 35.5 C60.86567169 42.15731212 70.46970169 48.73661614 80.09765625 55.28515625 C86.50943808 59.64631778 92.89801677 64.04090487 99.28417969 68.43945312 C102.58396956 70.71155061 105.88586901 72.98057913 109.1875 75.25 C110.52084282 76.16665286 111.85417617 77.08331951 113.1875 78 C114.1775 78.680625 114.1775 78.680625 115.1875 79.375 C133.1875 91.75 151.1875 104.125 169.1875 116.5 C170.17665405 117.18002075 170.17665405 117.18002075 171.18579102 117.8737793 C172.52487791 118.79443216 173.86390747 119.71516841 175.20288086 120.63598633 C178.44773002 122.86733692 181.69341802 125.09743948 184.94140625 127.32421875 C192.75456127 132.68377249 200.53997139 138.08168193 208.3125 143.5 C217.86567169 150.15731212 227.46970169 156.73661614 237.09765625 163.28515625 C242.87358202 167.21382162 248.63108678 171.16883531 254.3828125 175.1328125 C257.01792425 176.94829385 259.65929095 178.75422738 262.3046875 180.5546875 C300.03646067 206.2685868 300.03646067 206.2685868 305.59765625 229.1796875 C308.04904851 244.01791612 305.25457552 257.03562034 297.34765625 269.77734375 C290.3127933 279.4582311 281.19774484 286.66010169 271.33984375 293.29980469 C268.87429867 294.96102721 266.42138878 296.64009567 263.96875 298.3203125 C260.18164645 300.9117148 256.38984937 303.49601287 252.59375 306.07421875 C246.06417456 310.51007163 239.56088246 314.98360319 233.06005859 319.46142578 C231.1936945 320.74573734 229.32564195 322.02755351 227.45703125 323.30859375 C219.63575057 328.67290657 211.842733 334.07631111 204.0625 339.5 C193.63445924 346.76698153 183.14213767 353.93626699 172.6328125 361.08496094 C162.73184591 367.82663347 152.88937752 374.65091465 143.0625 381.5 C133.50926054 388.15721604 123.9052995 394.73661533 114.27734375 401.28515625 C107.85513788 405.65340799 101.45646454 410.05552714 95.06005859 414.46142578 C93.1936945 415.74573734 91.32564195 417.02755351 89.45703125 418.30859375 C81.63575057 423.67290657 73.842733 429.07631111 66.0625 434.5 C56.50932831 441.15731212 46.90529831 447.73661614 37.27734375 454.28515625 C32.78022572 457.34400302 28.29298504 460.41685268 23.8125 463.5 C23.17658936 463.93723389 22.54067871 464.37446777 21.88549805 464.82495117 C18.63314692 467.06237829 15.38483521 469.3054719 12.140625 471.5546875 C-23.39353917 496.16146976 -23.39353917 496.16146976 -40.6875 496.125 C-41.4825293 496.12338867 -42.27755859 496.12177734 -43.09667969 496.12011719 C-49.10017227 495.99447988 -53.70556808 495.04774976 -58.8125 491.75 C-59.84375 491.1725 -60.875 490.595 -61.9375 490 C-69.28807597 484.24737532 -73.68686129 477.51677433 -76.8125 468.75 C-77.06132323 468.05904511 -77.31014646 467.36809022 -77.56650978 466.65619731 C-80.37394075 457.82283835 -80.23490516 449.13089101 -80.20018005 439.97589111 C-80.20435765 438.17867156 -80.2098375 436.38145464 -80.21649987 434.58424258 C-80.23091752 429.66691548 -80.22672124 424.74975651 -80.21933305 419.83242035 C-80.2145945 414.52074116 -80.22711739 409.20909799 -80.23735046 403.89743042 C-80.254531 393.49913825 -80.25537991 383.10090653 -80.25013756 372.70260385 C-80.24609282 364.2480874 -80.24754304 355.79358878 -80.25288582 347.33907318 C-80.25363424 346.13483691 -80.25438266 344.93060065 -80.25515376 343.68987237 C-80.25668528 341.24328321 -80.25822363 338.79669405 -80.25976873 336.3501049 C-80.27349138 313.4148518 -80.268058 290.47963283 -80.25658352 267.54438052 C-80.24665401 246.57776753 -80.25958738 225.61124283 -80.28351771 204.64464346 C-80.30792132 183.10052718 -80.31751331 161.556452 -80.31086498 140.01232219 C-80.30737524 127.92324046 -80.30958858 115.83422659 -80.32711601 103.74515533 C-80.34185384 93.45267977 -80.34245283 83.16031985 -80.3250451 72.86784652 C-80.31654534 67.62039889 -80.31436055 62.37315772 -80.32969666 57.12572098 C-80.34358435 52.31414057 -80.33872824 47.50294268 -80.31945742 42.69138417 C-80.31570956 40.95861881 -80.31858401 39.22582251 -80.32906907 37.49308482 C-80.42206825 20.93575685 -78.16009344 5.68120856 -66.5625 -7.0625 C-46.3248801 -26.12823099 -19.27136162 -13.29003113 0 0 Z " fill="#000000" transform="translate(91.8125,16.25)"/>
<path d="M0 0 C1.19044922 -0.03738281 2.38089844 -0.07476563 3.60742188 -0.11328125 C12.48718768 -0.20115139 19.39304905 1.21525077 26.08032227 7.33642578 C32.34209912 13.79497456 34.39875114 20.90000914 34.31781673 29.67440701 C34.32247665 30.47447702 34.32713657 31.27454704 34.3319377 32.0988616 C34.34386294 34.77257375 34.3345019 37.44577542 34.32518005 40.11949158 C34.32935404 42.05864109 34.33483192 43.99778817 34.34149987 45.93693072 C34.35596448 51.26026878 34.35170653 56.58345215 34.34433305 61.90679872 C34.33960625 67.64991168 34.3521069 73.39299095 34.36235046 79.13609314 C34.37955309 90.38502963 34.38037546 101.63391031 34.37513756 112.88285654 C34.37109751 122.02494828 34.37253746 131.16702351 34.37788582 140.30911446 C34.37863424 141.60985181 34.37938266 142.91058917 34.38015376 144.25074281 C34.38168523 146.89310896 34.38322357 149.53547511 34.38476873 152.17784125 C34.39459849 169.92086697 34.39876015 187.66388559 34.39114285 205.4069128 C34.39084567 206.10060203 34.3905485 206.79429126 34.39024232 207.50900137 C34.38779342 213.14213073 34.38518182 218.77526002 34.38255819 224.4083893 C34.37245528 246.38223321 34.3808125 268.35600072 34.40405273 290.32983398 C34.43012639 315.02259286 34.44292353 339.71530399 34.43586498 364.4080773 C34.43236964 377.48069828 34.43462574 390.5532565 34.45211601 403.62586784 C34.4668196 414.75374661 34.46749746 425.88151843 34.4500451 437.00939506 C34.44151779 442.68745475 34.43942796 448.36532325 34.45469666 454.04337311 C34.46850182 459.24148831 34.46383419 464.43924776 34.44445742 469.63734216 C34.44068431 471.51746501 34.44365698 473.39761608 34.45406907 475.27771389 C34.51446684 487.01883812 34.1257054 496.81180089 25.7355957 505.81762695 C18.27758418 512.27718642 10.41423736 513.14140051 0.875 512.9375 C-0.80432617 512.95393555 -0.80432617 512.95393555 -2.51757812 512.97070312 C-12.54072114 512.88252298 -19.90109965 510.28335841 -27.26953125 503.4296875 C-34.18863791 495.50060231 -35.21927841 486.60156857 -35.19392776 476.41004658 C-35.1959804 475.63397805 -35.19803303 474.85790953 -35.20014787 474.05832377 C-35.20579792 471.46035994 -35.20436309 468.86244946 -35.20294189 466.26448059 C-35.20552667 464.38195713 -35.20854014 462.49943422 -35.2119453 460.61691207 C-35.22000524 455.4453729 -35.22180431 450.27384762 -35.22254276 445.10230291 C-35.22439505 439.52409009 -35.23194322 433.94588445 -35.23867798 428.36767578 C-35.25225424 416.17139352 -35.25828479 403.97511456 -35.26268864 391.778826 C-35.26545201 384.16286477 -35.26968951 376.54690481 -35.27419281 368.93094444 C-35.28638408 347.84250501 -35.29671935 326.75406642 -35.3000679 305.66562366 C-35.30028953 304.30255927 -35.30051132 302.93949488 -35.30073325 301.57643048 C-35.30095389 300.21011834 -35.30117437 298.8438062 -35.3013947 297.47749406 C-35.30183725 294.73654226 -35.30228436 291.99559047 -35.30273438 289.25463867 C-35.30284377 288.57504487 -35.30295316 287.89545108 -35.30306586 287.19526353 C-35.30669631 265.16058015 -35.32261704 243.12592967 -35.34592474 221.09125889 C-35.37053412 197.78331404 -35.38423452 174.47539055 -35.38543582 151.1674301 C-35.38635243 138.46638194 -35.39210143 125.76537688 -35.41025543 113.06434059 C-35.42565861 102.24982107 -35.43077553 91.43535797 -35.42251733 80.62082956 C-35.41861176 75.10445091 -35.41953606 69.58818587 -35.43357468 64.07182121 C-35.44631869 59.01790121 -35.44511157 53.96418015 -35.43298396 48.9102604 C-35.43102786 47.0859056 -35.43410135 45.26153669 -35.44282833 43.43720172 C-35.55547813 18.28787443 -35.55547813 18.28787443 -27.9453125 9.12890625 C-19.39144189 1.16067409 -11.20982331 0.13055379 0 0 Z " fill="#000000" transform="translate(466.0625,-0.375)"/>
</svg>
