<?xml version="1.0" standalone="no"?>
<!DOCTYPE svg PUBLIC "-//W3C//DTD SVG 20010904//EN"
 "http://www.w3.org/TR/2001/REC-SVG-20010904/DTD/svg10.dtd">
<svg version="1.0" xmlns="http://www.w3.org/2000/svg"
 width="512.000000pt" height="512.000000pt" viewBox="0 0 512.000000 512.000000"
 preserveAspectRatio="xMidYMid meet">

<g transform="translate(0.000000,512.000000) scale(0.100000,-0.100000)"
fill="#000000" stroke="none">
<path d="M1178 4500 c-255 -44 -455 -228 -518 -476 -19 -75 -20 -116 -20
-1463 0 -1538 -4 -1446 68 -1591 49 -101 177 -230 274 -278 189 -92 405 -94
580 -6 80 40 1924 1359 1993 1425 121 115 187 272 187 444 1 65 -5 123 -16
165 -26 96 -90 212 -155 278 -68 71 -1912 1390 -2011 1439 -109 55 -275 82
-382 63z"/>
<path d="M4169 4452 c-39 -20 -62 -41 -84 -77 l-30 -48 0 -1766 0 -1766 28
-47 c49 -84 149 -124 244 -97 59 16 124 78 141 135 18 60 18 3488 0 3548 -16
53 -81 118 -134 134 -64 19 -107 15 -165 -16z"/>
</g>
</svg>
