<?xml version="1.0" encoding="UTF-8"?>
<svg version="1.1" xmlns="http://www.w3.org/2000/svg" width="512" height="512">
<path d="M0 0 C5.75070545 3.205011 9.60552611 7.75407834 11.6875 14 C11.8592326 16.05797591 11.95401206 18.12288332 12 20.1875 C12.05607422 21.81751953 12.05607422 21.81751953 12.11328125 23.48046875 C11.18954313 31.11613887 6.9005261 36.37737975 1.54199219 41.59960938 C0.93668671 42.20549896 0.33138123 42.81138855 -0.29226685 43.43563843 C-2.27404451 45.4146532 -4.26955769 47.37915809 -6.265625 49.34375 C-7.65083718 50.72149344 -9.03516262 52.10012895 -10.41864014 53.47961426 C-14.04630379 57.09207163 -17.68582106 60.6923498 -21.32800293 64.29016113 C-25.04886893 67.96996649 -28.75830989 71.66124996 -32.46875 75.3515625 C-39.73891034 82.57894033 -47.02165449 89.79349368 -54.3125 97 C-53.66452353 97.00097681 -53.01654707 97.00195362 -52.34893495 97.00296003 C-13.86870383 97.06134466 24.61146999 97.13522606 63.09163187 97.22898628 C67.72116252 97.24025325 72.35069346 97.25139189 76.98022461 97.26245117 C77.90180667 97.26465486 78.82338873 97.26685854 79.77289752 97.269129 C94.65757888 97.30441582 109.5422602 97.32932845 124.42696776 97.35034702 C139.72182025 97.37217795 155.01661889 97.40529695 170.31142551 97.44870156 C179.73457459 97.47509324 189.15765669 97.49288028 198.58084086 97.49934604 C205.05947241 97.50463841 211.53801996 97.52098273 218.01660635 97.54566566 C221.74371416 97.55955025 225.47067209 97.5689012 229.19780731 97.56500816 C272.71624598 97.52907119 309.91191259 106.49581342 341.875 137.75 C367.95877696 164.07577357 379.01220782 198.13084071 379.0065918 234.52319336 C378.94253788 245.72884691 377.75948226 256.20893661 374.6875 267 C374.50558105 267.66692871 374.32366211 268.33385742 374.13623047 269.02099609 C368.14518889 290.50629535 356.14644685 309.16515171 340.6875 325 C340.04554688 325.70382812 339.40359375 326.40765625 338.7421875 327.1328125 C318.47915903 348.79934078 286.14760179 362.73084455 256.6357497 364.09482813 C254.45792625 364.13337538 252.28202954 364.14293214 250.10386658 364.14044189 C248.86370555 364.14489858 248.86370555 364.14489858 247.59849077 364.1494453 C244.84812074 364.15806696 242.09779455 364.15963493 239.34741211 364.16113281 C237.36746631 364.16576538 235.3875214 364.17079063 233.40757751 364.17617798 C228.04411626 364.18925609 222.68066749 364.19573719 217.31719279 364.20018864 C213.96488894 364.20312496 210.61258847 364.20723068 207.26028633 364.21169281 C196.76685571 364.22535161 186.27343285 364.23502788 175.77999395 364.2388947 C163.67421653 364.2433807 151.56855172 364.26096054 139.46280855 364.2898953 C130.09700792 364.31150358 120.73123902 364.32159842 111.36541373 364.32293582 C105.77445327 364.32398385 100.1835989 364.32989224 94.59266472 364.34775543 C89.33705276 364.36422273 84.08162686 364.3663981 78.82599831 364.35761642 C76.89869565 364.35684551 74.97138303 364.36119592 73.04410553 364.37107468 C70.41056532 364.38378119 67.77768555 364.37792465 65.14414978 364.36749268 C64.38402507 364.37554908 63.62390036 364.38360548 62.84074157 364.39190602 C55.50917181 364.32411128 49.72444077 361.8096288 44.265625 356.8671875 C40.51177905 352.4257559 38.948495 347.12524501 38.25 341.4375 C39.18639468 334.08011322 41.21312086 328.2310734 46.6875 323 C53.48697646 318.69688305 59.72330452 317.84995863 67.69122314 317.86869812 C68.49204402 317.86658241 69.29286489 317.86446669 70.11795306 317.86228687 C72.79902677 317.85629995 75.48005323 317.85728612 78.16113281 317.8581543 C80.08500244 317.85512173 82.00887135 317.8516 83.93273926 317.84762573 C88.07693817 317.83974054 92.22112848 317.83459309 96.36533356 317.83133507 C102.9317944 317.82541374 109.49820135 317.80886017 116.06463623 317.78999329 C118.31564709 317.78365572 120.56665799 317.7773301 122.81766891 317.77101612 C124.50882206 317.7662674 124.50882206 317.7662674 126.23413992 317.76142275 C141.51773721 317.71941782 156.8013098 317.68640658 172.08496094 317.67407227 C182.39764797 317.66566422 192.71020177 317.64306908 203.02282214 317.6047166 C208.47330931 317.58504184 213.9235977 317.57252256 219.37412262 317.57755089 C224.51244887 317.58223316 229.65039981 317.56819843 234.78865051 317.54053879 C236.66174334 317.53368574 238.53487548 317.53343597 240.40796661 317.54073906 C256.45501955 317.59692448 271.32492447 315.69885806 285.6875 308 C286.64914062 307.50886719 287.61078125 307.01773437 288.6015625 306.51171875 C308.46649823 295.75796155 322.09535949 277.57384762 329.0625 256.3125 C335.48420962 233.2966381 333.35239997 209.32296005 321.68286133 188.29589844 C309.28453945 167.03854464 289.42523245 152.95548021 265.7734375 146.69140625 C260.83992931 145.58605062 256.15343108 144.874913 251.09221077 144.87695217 C249.4492873 144.8739656 249.4492873 144.8739656 247.77317345 144.87091869 C246.58056558 144.87383153 245.38795771 144.87674437 244.15921021 144.87974548 C242.24654321 144.87846385 242.24654321 144.87846385 240.29523647 144.87715632 C236.76289171 144.87492321 233.23057735 144.87891644 229.69823647 144.88393438 C225.88644539 144.88825569 222.074656 144.88679126 218.26286316 144.8860321 C211.6609672 144.88550794 205.05908113 144.88864357 198.45718765 144.89426994 C188.91197613 144.90239943 179.36676938 144.90500165 169.82155477 144.90625793 C154.33480984 144.90844617 138.84807019 144.91510009 123.36132812 144.92456055 C108.31803412 144.93374056 93.27474155 144.94081851 78.23144531 144.94506836 C76.84037639 144.94546244 76.84037639 144.94546244 75.42120506 144.94586449 C70.76878271 144.94716954 66.11636036 144.94843324 61.463938 144.94967639 C22.87178831 144.96004191 -15.7203555 144.97765403 -54.3125 145 C-53.52989304 145.77594513 -52.74728607 146.55189026 -51.94096375 147.35134888 C-44.56123422 154.67022383 -37.18946893 161.9970374 -29.82539654 169.33166695 C-26.0393358 173.10208192 -22.25053942 176.86965942 -18.45532227 180.63085938 C-14.79181226 184.26173782 -11.13571133 187.89992747 -7.48459816 191.54327011 C-6.09139347 192.93093817 -4.6955539 194.3159661 -3.29703331 195.69827652 C-1.33637574 197.63711007 0.61464373 199.58517899 2.5637207 201.53564453 C3.1420314 202.1031694 3.7203421 202.67069427 4.31617737 203.25541687 C9.57877341 208.55863865 12.11649161 213.23446906 12.125 220.875 C11.97014993 226.75930259 11.53275509 231.39426271 7.6875 236 C1.43579257 241.82100525 -4.202305 244.48746883 -12.76953125 244.234375 C-25.70067302 243.0425647 -34.45776778 231.00462758 -43.10498047 222.3527832 C-44.02660477 221.43451752 -44.94822906 220.51625183 -45.89778137 219.57015991 C-48.39357503 217.08309171 -50.88622108 214.59289313 -53.37797689 212.10178018 C-54.93903026 210.54144278 -56.50079568 208.98182168 -58.06280899 207.4224453 C-63.52290257 201.97156032 -68.98045134 196.51814264 -74.43554688 191.06225586 C-79.50593965 185.99126037 -84.58190786 180.92589317 -89.66046798 175.86307842 C-94.03879647 171.49783759 -98.41324859 167.12873768 -102.78471863 162.75662869 C-105.38803841 160.15305471 -107.99286646 157.55103631 -110.60161972 154.95290565 C-113.50549833 152.06053424 -116.40127363 149.16017842 -119.29638672 146.2590332 C-120.15461533 145.4064241 -121.01284393 144.553815 -121.89707947 143.67536926 C-128.87603926 136.65937319 -133.41381591 131.59383083 -133.625 121.3125 C-133.66238281 120.13300781 -133.69976562 118.95351562 -133.73828125 117.73828125 C-132.63380273 108.0411625 -126.17684228 102.28462922 -119.56201172 95.71606445 C-118.56206124 94.70904542 -117.56295361 93.70118886 -116.56462097 92.69256592 C-113.86497179 89.97051564 -111.15285591 87.26122526 -108.43754339 84.55480981 C-106.16502682 82.28742353 -103.89876728 80.01383432 -101.63245499 77.74024934 C-96.28188275 72.37270679 -90.9211429 67.01547431 -85.55371094 61.66479492 C-80.03240464 56.16040013 -74.52766126 50.63983863 -69.03099048 45.11085159 C-64.29681424 40.34990824 -59.55290853 35.59881714 -54.80109799 30.85547417 C-51.96950788 28.02879337 -49.14153491 25.19873356 -46.32271957 22.35930824 C-43.66956537 19.68768534 -41.00435661 17.02868282 -38.32975197 14.37854004 C-36.89445863 12.95057382 -35.47135737 11.51038487 -34.04878235 10.06974792 C-24.24536903 0.4081693 -13.65943188 -6.02079906 0 0 Z " fill="#000000" transform="translate(133.3125,75)"/>
</svg>
