<?xml version="1.0" encoding="UTF-8"?>
<svg version="1.1" xmlns="http://www.w3.org/2000/svg" width="512" height="512">
<path d="M0 0 C17.71263817 -0.79607363 33.81707449 6.85923389 46.9296875 18.125 C59.49942184 29.92121223 65.79934906 46.08289605 66.89605379 63.08931828 C66.96555296 66.01770269 66.97782701 68.94008807 66.96490479 71.8692627 C66.96802477 72.97769169 66.97114475 74.08612069 66.97435927 75.22813845 C66.9822776 78.90800727 66.97603977 82.58770835 66.96972656 86.26757812 C66.97243916 88.91979956 66.97592983 91.5720098 66.98034668 94.22422791 C66.98920471 100.65959204 66.98733476 107.09490932 66.9815214 113.53027523 C66.97699071 118.76396687 66.97639807 123.99764545 66.97856903 129.2313385 C66.9788755 129.97837084 66.97918196 130.72540319 66.97949772 131.49507287 C66.98013722 133.01301269 66.98078564 134.53095251 66.9814429 136.04889232 C66.98713567 150.25739225 66.98060485 164.46586631 66.96984217 178.674362 C66.96090761 190.84590923 66.96245995 203.0174183 66.97167969 215.18896484 C66.98240095 229.34925002 66.98658645 243.50951256 66.98045516 257.66980124 C66.97981811 259.18192132 66.97918937 260.69404141 66.97856903 262.2061615 C66.97826048 262.95000698 66.97795193 263.69385247 66.97763403 264.46023872 C66.97591265 269.68305717 66.97881013 274.90586116 66.98352814 280.12867737 C66.98915764 286.50010494 66.98757724 292.87148327 66.97696665 299.24290526 C66.97173764 302.48898446 66.97069596 305.73496558 66.97626495 308.98104668 C66.98175983 312.51019092 66.9748385 316.03910742 66.96490479 319.5682373 C66.96936623 320.57954476 66.97382767 321.59085221 66.97842431 322.63280535 C66.87239671 342.15898853 60.622088 358.78558792 47.3359375 373.09375 C33.69517911 385.76240837 16.6207068 390.98760832 -1.5859375 390.52734375 C-21.1818614 389.55880034 -35.7560932 379.17033891 -51.00585938 367.89306641 C-54.56429761 365.28359577 -58.17564811 362.75125364 -61.7890625 360.21875 C-68.41907308 355.55851403 -74.99636556 350.82929288 -81.55859375 346.07421875 C-86.60988458 342.41879412 -91.68858602 338.80517038 -96.7890625 335.21875 C-103.41828962 330.55738251 -109.99634787 325.82930569 -116.55859375 321.07421875 C-121.60988458 317.41879412 -126.68858602 313.80517038 -131.7890625 310.21875 C-138.41828962 305.55738251 -144.99634787 300.82930569 -151.55859375 296.07421875 C-157.30716795 291.91419701 -163.09630278 287.8149082 -168.90112305 283.73388672 C-174.74785849 279.61684701 -180.54060764 275.42806838 -186.32788086 271.22802734 C-192.92750083 266.45152653 -199.5992608 261.7814266 -206.30200195 257.15087891 C-211.08650307 253.82824012 -215.7358321 250.38024164 -220.31030273 246.7734375 C-221.59277111 245.76581768 -222.88622753 244.7719679 -224.19213867 243.79492188 C-235.13839245 235.5613844 -242.80877223 220.43752027 -245.00390625 207.16015625 C-246.83376352 188.28505318 -244.12856506 170.83667325 -232.1171875 155.43359375 C-225.06121288 147.36788483 -217.12707396 140.88069484 -208.2265625 134.96875 C-202.29076636 130.96833915 -196.41340703 126.92083952 -190.6640625 122.65625 C-185.48234556 118.81520834 -180.25495346 115.05094677 -174.9765625 111.34375 C-169.04837068 107.17914455 -163.15515591 102.97038615 -157.2890625 98.71875 C-150.78853589 94.00826402 -144.25042255 89.35577311 -137.68359375 84.73828125 C-132.5233953 81.10420434 -127.3997731 77.42203599 -122.2890625 73.71875 C-115.78847767 69.00834343 -109.2504237 64.35577392 -102.68359375 59.73828125 C-97.5233953 56.10420434 -92.3997731 52.42203599 -87.2890625 48.71875 C-80.79014392 44.00955083 -74.25506957 39.35626786 -67.68798828 34.74267578 C-63.24949959 31.6189905 -58.84390754 28.4538258 -54.45581055 25.25976562 C-50.74559075 22.56257378 -47.02055773 19.88640825 -43.2890625 17.21875 C-42.61568848 16.73567383 -41.94231445 16.25259766 -41.24853516 15.75488281 C-28.23222206 6.48837703 -16.07152285 1.53584519 0 0 Z " fill="#000000" transform="translate(382.2890625,60.78125)"/>
<path d="M0 0 C1.21171875 -0.02578125 2.4234375 -0.0515625 3.671875 -0.078125 C10.07036817 0.50863638 14.17031839 3.41879809 18.25 8.25 C22.91783929 15.49163768 22.81619436 22.09691364 22.75793457 30.52148438 C22.76254753 31.97462335 22.7689031 33.42775766 22.77684355 34.88088226 C22.79350596 38.86084437 22.78530473 42.84042168 22.77289867 46.82038498 C22.76383779 51.11766893 22.77782305 55.41488733 22.78881836 59.7121582 C22.80659709 68.12531087 22.80276648 76.53832072 22.7911678 84.95147896 C22.78213121 91.78952328 22.78091045 98.6275276 22.78526306 105.46557617 C22.78587599 106.43910963 22.78648893 107.41264308 22.78712043 108.41567755 C22.78839934 110.39344344 22.7896962 112.37120932 22.7910108 114.34897518 C22.8024147 132.89088363 22.78930585 151.43271295 22.76780933 169.97460842 C22.74993853 185.8815494 22.75304269 201.78837362 22.77148438 217.6953125 C22.79289442 236.17124606 22.80131609 254.64711028 22.78903532 273.1230545 C22.78776113 275.09351093 22.78650365 277.06396738 22.78526306 279.03442383 C22.78464596 280.00390504 22.78402886 280.97338626 22.78339306 281.97224569 C22.77994056 288.80141967 22.78576634 295.63054964 22.79518127 302.4597168 C22.80640411 310.78315427 22.8033552 319.10644086 22.7820583 327.42986107 C22.77155172 331.67595091 22.76741931 335.92178927 22.78065491 340.1678772 C22.79259287 344.05650791 22.78599348 347.94465454 22.7647447 351.83324146 C22.76028454 353.23824493 22.76253179 354.64328946 22.77224785 356.04826641 C22.83275088 365.52583505 22.13572095 371.64848835 15.875 379.0625 C9.88680332 384.0526639 5.1259121 384.80840194 -2.55859375 384.58984375 C-8.10476147 383.99924817 -11.7485309 382.43142575 -15.53125 378.30859375 C-19.43408883 373.3103827 -20.87351855 369.77672419 -20.88422108 363.37465382 C-20.89090784 361.52341143 -20.89090784 361.52341143 -20.89772969 359.63477021 C-20.89764039 358.25780029 -20.89745054 356.88083037 -20.89717102 355.50386047 C-20.90046965 354.04679252 -20.90419522 352.58972548 -20.9083125 351.13265961 C-20.91834071 347.11872406 -20.92205061 343.10480346 -20.92470181 339.09085715 C-20.92860243 334.76555661 -20.93818093 330.44026794 -20.94691467 326.11497498 C-20.96668587 315.66448602 -20.97674609 305.21399608 -20.98564246 294.76349309 C-20.99002426 289.84381009 -20.99539135 284.92412817 -21.00063133 280.00444603 C-21.0176442 263.65313217 -21.03213882 247.30181898 -21.03938007 230.95049763 C-21.04129001 226.7063376 -21.04321034 222.46217758 -21.04516602 218.21801758 C-21.04564976 217.16313494 -21.0461335 216.1082523 -21.0466319 215.02140351 C-21.05493383 197.92946931 -21.08027325 180.83760506 -21.11274669 163.74570141 C-21.14580479 146.20325389 -21.1638277 128.66084192 -21.16702431 111.11836308 C-21.16919056 101.26669839 -21.17795598 91.41513572 -21.20348549 81.56350136 C-21.2251754 73.17408871 -21.23325133 64.78480284 -21.22351871 56.39536534 C-21.21896905 52.11486604 -21.22089877 47.83462842 -21.24028015 43.55416489 C-21.25787729 39.63390388 -21.25694242 35.71409612 -21.24138286 31.79383054 C-21.23900152 30.37722724 -21.24335768 28.96059284 -21.25521151 27.54403714 C-21.31692161 19.68119004 -21.09192033 13.93143551 -16.75 7.25 C-14.6796875 5.19140625 -14.6796875 5.19140625 -12.625 3.8125 C-11.60019531 3.10287109 -11.60019531 3.10287109 -10.5546875 2.37890625 C-6.89934666 0.09234023 -4.33014442 0.05481195 0 0 Z " fill="#000000" transform="translate(84.75,63.75)"/>
</svg>
